<mxfile host="app.diagrams.net" agent="Mozilla/5.0 (Windows NT 10.0; Win64; x64) AppleWebKit/537.36 (KHTML, like Gecko) Chrome/140.0.0.0 Safari/537.36 Edg/140.0.0.0" version="27.1.6">
  <diagram name="PÃ¡gina-1" id="df_snZFdFoSauUcQg7fh">
    <mxGraphModel dx="1668" dy="925" grid="1" gridSize="10" guides="1" tooltips="1" connect="1" arrows="1" fold="1" page="1" pageScale="1" pageWidth="827" pageHeight="1169" math="0" shadow="0">
      <root>
        <mxCell id="0" />
        <mxCell id="1" parent="0" />
        <mxCell id="jNTaSUSKe1fC9ofm2qRA-5" value="" style="shape=table;startSize=0;container=1;collapsible=0;childLayout=tableLayout;" parent="1" vertex="1">
          <mxGeometry x="790" y="400" width="230" height="240" as="geometry" />
        </mxCell>
        <mxCell id="jNTaSUSKe1fC9ofm2qRA-6" value="" style="shape=tableRow;horizontal=0;startSize=0;swimlaneHead=0;swimlaneBody=0;strokeColor=inherit;top=0;left=0;bottom=0;right=0;collapsible=0;dropTarget=0;fillColor=none;points=[[0,0.5],[1,0.5]];portConstraint=eastwest;" parent="jNTaSUSKe1fC9ofm2qRA-5" vertex="1">
          <mxGeometry width="230" height="40" as="geometry" />
        </mxCell>
        <mxCell id="jNTaSUSKe1fC9ofm2qRA-18" value="&lt;font style=&quot;font-size: 18px;&quot;&gt;LIVRO&lt;/font&gt;" style="shape=partialRectangle;html=1;whiteSpace=wrap;connectable=0;strokeColor=#666666;overflow=hidden;fillColor=#f5f5f5;top=0;left=0;bottom=0;right=0;pointerEvents=1;rowspan=1;colspan=2;gradientColor=#b3b3b3;" parent="jNTaSUSKe1fC9ofm2qRA-6" vertex="1">
          <mxGeometry width="230" height="40" as="geometry">
            <mxRectangle width="60" height="40" as="alternateBounds" />
          </mxGeometry>
        </mxCell>
        <mxCell id="jNTaSUSKe1fC9ofm2qRA-7" value="&lt;font style=&quot;font-size: 18px;&quot;&gt;Livro&lt;/font&gt;" style="shape=partialRectangle;html=1;whiteSpace=wrap;connectable=0;strokeColor=inherit;overflow=hidden;fillColor=none;top=0;left=0;bottom=0;right=0;pointerEvents=1;" parent="jNTaSUSKe1fC9ofm2qRA-6" vertex="1" visible="0">
          <mxGeometry x="60" width="170" height="40" as="geometry">
            <mxRectangle width="170" height="40" as="alternateBounds" />
          </mxGeometry>
        </mxCell>
        <mxCell id="jNTaSUSKe1fC9ofm2qRA-8" value="" style="shape=tableRow;horizontal=0;startSize=0;swimlaneHead=0;swimlaneBody=0;strokeColor=inherit;top=0;left=0;bottom=0;right=0;collapsible=0;dropTarget=0;fillColor=none;points=[[0,0.5],[1,0.5]];portConstraint=eastwest;" parent="jNTaSUSKe1fC9ofm2qRA-5" vertex="1">
          <mxGeometry y="40" width="230" height="40" as="geometry" />
        </mxCell>
        <mxCell id="jNTaSUSKe1fC9ofm2qRA-19" value="PK" style="shape=partialRectangle;html=1;whiteSpace=wrap;connectable=0;strokeColor=inherit;overflow=hidden;fillColor=none;top=0;left=0;bottom=0;right=0;pointerEvents=1;" parent="jNTaSUSKe1fC9ofm2qRA-8" vertex="1">
          <mxGeometry width="60" height="40" as="geometry">
            <mxRectangle width="60" height="40" as="alternateBounds" />
          </mxGeometry>
        </mxCell>
        <mxCell id="jNTaSUSKe1fC9ofm2qRA-9" value="Id_livro" style="shape=partialRectangle;html=1;whiteSpace=wrap;connectable=0;strokeColor=inherit;overflow=hidden;fillColor=none;top=0;left=0;bottom=0;right=0;pointerEvents=1;" parent="jNTaSUSKe1fC9ofm2qRA-8" vertex="1">
          <mxGeometry x="60" width="170" height="40" as="geometry">
            <mxRectangle width="170" height="40" as="alternateBounds" />
          </mxGeometry>
        </mxCell>
        <mxCell id="jNTaSUSKe1fC9ofm2qRA-10" value="" style="shape=tableRow;horizontal=0;startSize=0;swimlaneHead=0;swimlaneBody=0;strokeColor=inherit;top=0;left=0;bottom=0;right=0;collapsible=0;dropTarget=0;fillColor=none;points=[[0,0.5],[1,0.5]];portConstraint=eastwest;" parent="jNTaSUSKe1fC9ofm2qRA-5" vertex="1">
          <mxGeometry y="80" width="230" height="40" as="geometry" />
        </mxCell>
        <mxCell id="jNTaSUSKe1fC9ofm2qRA-20" style="shape=partialRectangle;html=1;whiteSpace=wrap;connectable=0;strokeColor=inherit;overflow=hidden;fillColor=none;top=0;left=0;bottom=0;right=0;pointerEvents=1;" parent="jNTaSUSKe1fC9ofm2qRA-10" vertex="1">
          <mxGeometry width="60" height="40" as="geometry">
            <mxRectangle width="60" height="40" as="alternateBounds" />
          </mxGeometry>
        </mxCell>
        <mxCell id="jNTaSUSKe1fC9ofm2qRA-11" value="titulo" style="shape=partialRectangle;html=1;whiteSpace=wrap;connectable=0;strokeColor=inherit;overflow=hidden;fillColor=none;top=0;left=0;bottom=0;right=0;pointerEvents=1;" parent="jNTaSUSKe1fC9ofm2qRA-10" vertex="1">
          <mxGeometry x="60" width="170" height="40" as="geometry">
            <mxRectangle width="170" height="40" as="alternateBounds" />
          </mxGeometry>
        </mxCell>
        <mxCell id="jNTaSUSKe1fC9ofm2qRA-14" value="" style="shape=tableRow;horizontal=0;startSize=0;swimlaneHead=0;swimlaneBody=0;strokeColor=inherit;top=0;left=0;bottom=0;right=0;collapsible=0;dropTarget=0;fillColor=none;points=[[0,0.5],[1,0.5]];portConstraint=eastwest;" parent="jNTaSUSKe1fC9ofm2qRA-5" vertex="1">
          <mxGeometry y="120" width="230" height="40" as="geometry" />
        </mxCell>
        <mxCell id="jNTaSUSKe1fC9ofm2qRA-22" style="shape=partialRectangle;html=1;whiteSpace=wrap;connectable=0;strokeColor=inherit;overflow=hidden;fillColor=none;top=0;left=0;bottom=0;right=0;pointerEvents=1;" parent="jNTaSUSKe1fC9ofm2qRA-14" vertex="1">
          <mxGeometry width="60" height="40" as="geometry">
            <mxRectangle width="60" height="40" as="alternateBounds" />
          </mxGeometry>
        </mxCell>
        <mxCell id="jNTaSUSKe1fC9ofm2qRA-15" value="genero" style="shape=partialRectangle;html=1;whiteSpace=wrap;connectable=0;strokeColor=inherit;overflow=hidden;fillColor=none;top=0;left=0;bottom=0;right=0;pointerEvents=1;" parent="jNTaSUSKe1fC9ofm2qRA-14" vertex="1">
          <mxGeometry x="60" width="170" height="40" as="geometry">
            <mxRectangle width="170" height="40" as="alternateBounds" />
          </mxGeometry>
        </mxCell>
        <mxCell id="-hLwLj78S3W-SjMAlXVM-20" style="shape=tableRow;horizontal=0;startSize=0;swimlaneHead=0;swimlaneBody=0;strokeColor=inherit;top=0;left=0;bottom=0;right=0;collapsible=0;dropTarget=0;fillColor=none;points=[[0,0.5],[1,0.5]];portConstraint=eastwest;" parent="jNTaSUSKe1fC9ofm2qRA-5" vertex="1">
          <mxGeometry y="160" width="230" height="40" as="geometry" />
        </mxCell>
        <mxCell id="-hLwLj78S3W-SjMAlXVM-21" style="shape=partialRectangle;html=1;whiteSpace=wrap;connectable=0;strokeColor=inherit;overflow=hidden;fillColor=none;top=0;left=0;bottom=0;right=0;pointerEvents=1;" parent="-hLwLj78S3W-SjMAlXVM-20" vertex="1">
          <mxGeometry width="60" height="40" as="geometry">
            <mxRectangle width="60" height="40" as="alternateBounds" />
          </mxGeometry>
        </mxCell>
        <mxCell id="-hLwLj78S3W-SjMAlXVM-22" value="valor" style="shape=partialRectangle;html=1;whiteSpace=wrap;connectable=0;strokeColor=inherit;overflow=hidden;fillColor=none;top=0;left=0;bottom=0;right=0;pointerEvents=1;" parent="-hLwLj78S3W-SjMAlXVM-20" vertex="1">
          <mxGeometry x="60" width="170" height="40" as="geometry">
            <mxRectangle width="170" height="40" as="alternateBounds" />
          </mxGeometry>
        </mxCell>
        <mxCell id="-hLwLj78S3W-SjMAlXVM-7" style="shape=tableRow;horizontal=0;startSize=0;swimlaneHead=0;swimlaneBody=0;strokeColor=inherit;top=0;left=0;bottom=0;right=0;collapsible=0;dropTarget=0;fillColor=none;points=[[0,0.5],[1,0.5]];portConstraint=eastwest;" parent="jNTaSUSKe1fC9ofm2qRA-5" vertex="1">
          <mxGeometry y="200" width="230" height="40" as="geometry" />
        </mxCell>
        <mxCell id="-hLwLj78S3W-SjMAlXVM-8" style="shape=partialRectangle;html=1;whiteSpace=wrap;connectable=0;strokeColor=inherit;overflow=hidden;fillColor=none;top=0;left=0;bottom=0;right=0;pointerEvents=1;" parent="-hLwLj78S3W-SjMAlXVM-7" vertex="1">
          <mxGeometry width="60" height="40" as="geometry">
            <mxRectangle width="60" height="40" as="alternateBounds" />
          </mxGeometry>
        </mxCell>
        <mxCell id="-hLwLj78S3W-SjMAlXVM-9" value="&lt;div&gt;quantidade&lt;/div&gt;" style="shape=partialRectangle;html=1;whiteSpace=wrap;connectable=0;strokeColor=inherit;overflow=hidden;fillColor=none;top=0;left=0;bottom=0;right=0;pointerEvents=1;" parent="-hLwLj78S3W-SjMAlXVM-7" vertex="1">
          <mxGeometry x="60" width="170" height="40" as="geometry">
            <mxRectangle width="170" height="40" as="alternateBounds" />
          </mxGeometry>
        </mxCell>
        <mxCell id="jNTaSUSKe1fC9ofm2qRA-66" value="" style="shape=table;startSize=0;container=1;collapsible=0;childLayout=tableLayout;" parent="1" vertex="1">
          <mxGeometry x="460" y="140" width="230" height="240" as="geometry" />
        </mxCell>
        <mxCell id="jNTaSUSKe1fC9ofm2qRA-67" value="" style="shape=tableRow;horizontal=0;startSize=0;swimlaneHead=0;swimlaneBody=0;strokeColor=inherit;top=0;left=0;bottom=0;right=0;collapsible=0;dropTarget=0;fillColor=none;points=[[0,0.5],[1,0.5]];portConstraint=eastwest;" parent="jNTaSUSKe1fC9ofm2qRA-66" vertex="1">
          <mxGeometry width="230" height="40" as="geometry" />
        </mxCell>
        <mxCell id="jNTaSUSKe1fC9ofm2qRA-68" value="&lt;font style=&quot;font-size: 18px;&quot;&gt;CLIENTE&lt;/font&gt;" style="shape=partialRectangle;html=1;whiteSpace=wrap;connectable=0;strokeColor=#666666;overflow=hidden;fillColor=#f5f5f5;top=0;left=0;bottom=0;right=0;pointerEvents=1;rowspan=1;colspan=2;gradientColor=#b3b3b3;" parent="jNTaSUSKe1fC9ofm2qRA-67" vertex="1">
          <mxGeometry width="230" height="40" as="geometry">
            <mxRectangle width="60" height="40" as="alternateBounds" />
          </mxGeometry>
        </mxCell>
        <mxCell id="jNTaSUSKe1fC9ofm2qRA-69" value="&lt;font style=&quot;font-size: 18px;&quot;&gt;Livro&lt;/font&gt;" style="shape=partialRectangle;html=1;whiteSpace=wrap;connectable=0;strokeColor=inherit;overflow=hidden;fillColor=none;top=0;left=0;bottom=0;right=0;pointerEvents=1;" parent="jNTaSUSKe1fC9ofm2qRA-67" vertex="1" visible="0">
          <mxGeometry x="60" width="170" height="40" as="geometry">
            <mxRectangle width="170" height="40" as="alternateBounds" />
          </mxGeometry>
        </mxCell>
        <mxCell id="jNTaSUSKe1fC9ofm2qRA-70" value="" style="shape=tableRow;horizontal=0;startSize=0;swimlaneHead=0;swimlaneBody=0;strokeColor=inherit;top=0;left=0;bottom=0;right=0;collapsible=0;dropTarget=0;fillColor=none;points=[[0,0.5],[1,0.5]];portConstraint=eastwest;" parent="jNTaSUSKe1fC9ofm2qRA-66" vertex="1">
          <mxGeometry y="40" width="230" height="40" as="geometry" />
        </mxCell>
        <mxCell id="jNTaSUSKe1fC9ofm2qRA-71" value="PK" style="shape=partialRectangle;html=1;whiteSpace=wrap;connectable=0;strokeColor=inherit;overflow=hidden;fillColor=none;top=0;left=0;bottom=0;right=0;pointerEvents=1;" parent="jNTaSUSKe1fC9ofm2qRA-70" vertex="1">
          <mxGeometry width="60" height="40" as="geometry">
            <mxRectangle width="60" height="40" as="alternateBounds" />
          </mxGeometry>
        </mxCell>
        <mxCell id="jNTaSUSKe1fC9ofm2qRA-72" value="Id_cliente" style="shape=partialRectangle;html=1;whiteSpace=wrap;connectable=0;strokeColor=inherit;overflow=hidden;fillColor=none;top=0;left=0;bottom=0;right=0;pointerEvents=1;" parent="jNTaSUSKe1fC9ofm2qRA-70" vertex="1">
          <mxGeometry x="60" width="170" height="40" as="geometry">
            <mxRectangle width="170" height="40" as="alternateBounds" />
          </mxGeometry>
        </mxCell>
        <mxCell id="jNTaSUSKe1fC9ofm2qRA-73" value="" style="shape=tableRow;horizontal=0;startSize=0;swimlaneHead=0;swimlaneBody=0;strokeColor=inherit;top=0;left=0;bottom=0;right=0;collapsible=0;dropTarget=0;fillColor=none;points=[[0,0.5],[1,0.5]];portConstraint=eastwest;" parent="jNTaSUSKe1fC9ofm2qRA-66" vertex="1">
          <mxGeometry y="80" width="230" height="40" as="geometry" />
        </mxCell>
        <mxCell id="jNTaSUSKe1fC9ofm2qRA-74" style="shape=partialRectangle;html=1;whiteSpace=wrap;connectable=0;strokeColor=inherit;overflow=hidden;fillColor=none;top=0;left=0;bottom=0;right=0;pointerEvents=1;" parent="jNTaSUSKe1fC9ofm2qRA-73" vertex="1">
          <mxGeometry width="60" height="40" as="geometry">
            <mxRectangle width="60" height="40" as="alternateBounds" />
          </mxGeometry>
        </mxCell>
        <mxCell id="jNTaSUSKe1fC9ofm2qRA-75" value="nome_cliente" style="shape=partialRectangle;html=1;whiteSpace=wrap;connectable=0;strokeColor=inherit;overflow=hidden;fillColor=none;top=0;left=0;bottom=0;right=0;pointerEvents=1;" parent="jNTaSUSKe1fC9ofm2qRA-73" vertex="1">
          <mxGeometry x="60" width="170" height="40" as="geometry">
            <mxRectangle width="170" height="40" as="alternateBounds" />
          </mxGeometry>
        </mxCell>
        <mxCell id="jNTaSUSKe1fC9ofm2qRA-76" value="" style="shape=tableRow;horizontal=0;startSize=0;swimlaneHead=0;swimlaneBody=0;strokeColor=inherit;top=0;left=0;bottom=0;right=0;collapsible=0;dropTarget=0;fillColor=none;points=[[0,0.5],[1,0.5]];portConstraint=eastwest;" parent="jNTaSUSKe1fC9ofm2qRA-66" vertex="1">
          <mxGeometry y="120" width="230" height="40" as="geometry" />
        </mxCell>
        <mxCell id="jNTaSUSKe1fC9ofm2qRA-77" style="shape=partialRectangle;html=1;whiteSpace=wrap;connectable=0;strokeColor=inherit;overflow=hidden;fillColor=none;top=0;left=0;bottom=0;right=0;pointerEvents=1;" parent="jNTaSUSKe1fC9ofm2qRA-76" vertex="1">
          <mxGeometry width="60" height="40" as="geometry">
            <mxRectangle width="60" height="40" as="alternateBounds" />
          </mxGeometry>
        </mxCell>
        <mxCell id="jNTaSUSKe1fC9ofm2qRA-78" value="cpf" style="shape=partialRectangle;html=1;whiteSpace=wrap;connectable=0;strokeColor=inherit;overflow=hidden;fillColor=none;top=0;left=0;bottom=0;right=0;pointerEvents=1;" parent="jNTaSUSKe1fC9ofm2qRA-76" vertex="1">
          <mxGeometry x="60" width="170" height="40" as="geometry">
            <mxRectangle width="170" height="40" as="alternateBounds" />
          </mxGeometry>
        </mxCell>
        <mxCell id="jNTaSUSKe1fC9ofm2qRA-79" value="" style="shape=tableRow;horizontal=0;startSize=0;swimlaneHead=0;swimlaneBody=0;strokeColor=inherit;top=0;left=0;bottom=0;right=0;collapsible=0;dropTarget=0;fillColor=none;points=[[0,0.5],[1,0.5]];portConstraint=eastwest;" parent="jNTaSUSKe1fC9ofm2qRA-66" vertex="1">
          <mxGeometry y="160" width="230" height="40" as="geometry" />
        </mxCell>
        <mxCell id="jNTaSUSKe1fC9ofm2qRA-80" style="shape=partialRectangle;html=1;whiteSpace=wrap;connectable=0;strokeColor=inherit;overflow=hidden;fillColor=none;top=0;left=0;bottom=0;right=0;pointerEvents=1;" parent="jNTaSUSKe1fC9ofm2qRA-79" vertex="1">
          <mxGeometry width="60" height="40" as="geometry">
            <mxRectangle width="60" height="40" as="alternateBounds" />
          </mxGeometry>
        </mxCell>
        <mxCell id="jNTaSUSKe1fC9ofm2qRA-81" value="telefone" style="shape=partialRectangle;html=1;whiteSpace=wrap;connectable=0;strokeColor=inherit;overflow=hidden;fillColor=none;top=0;left=0;bottom=0;right=0;pointerEvents=1;" parent="jNTaSUSKe1fC9ofm2qRA-79" vertex="1">
          <mxGeometry x="60" width="170" height="40" as="geometry">
            <mxRectangle width="170" height="40" as="alternateBounds" />
          </mxGeometry>
        </mxCell>
        <mxCell id="MK-CfrDireuOw1NUeYd8-1" style="shape=tableRow;horizontal=0;startSize=0;swimlaneHead=0;swimlaneBody=0;strokeColor=inherit;top=0;left=0;bottom=0;right=0;collapsible=0;dropTarget=0;fillColor=none;points=[[0,0.5],[1,0.5]];portConstraint=eastwest;" parent="jNTaSUSKe1fC9ofm2qRA-66" vertex="1">
          <mxGeometry y="200" width="230" height="40" as="geometry" />
        </mxCell>
        <mxCell id="MK-CfrDireuOw1NUeYd8-2" style="shape=partialRectangle;html=1;whiteSpace=wrap;connectable=0;strokeColor=inherit;overflow=hidden;fillColor=none;top=0;left=0;bottom=0;right=0;pointerEvents=1;" parent="MK-CfrDireuOw1NUeYd8-1" vertex="1">
          <mxGeometry width="60" height="40" as="geometry">
            <mxRectangle width="60" height="40" as="alternateBounds" />
          </mxGeometry>
        </mxCell>
        <mxCell id="MK-CfrDireuOw1NUeYd8-3" value="email" style="shape=partialRectangle;html=1;whiteSpace=wrap;connectable=0;strokeColor=inherit;overflow=hidden;fillColor=none;top=0;left=0;bottom=0;right=0;pointerEvents=1;" parent="MK-CfrDireuOw1NUeYd8-1" vertex="1">
          <mxGeometry x="60" width="170" height="40" as="geometry">
            <mxRectangle width="170" height="40" as="alternateBounds" />
          </mxGeometry>
        </mxCell>
        <mxCell id="jNTaSUSKe1fC9ofm2qRA-91" value="" style="shape=table;startSize=0;container=1;collapsible=0;childLayout=tableLayout;" parent="1" vertex="1">
          <mxGeometry x="1090" y="850" width="230" height="240" as="geometry" />
        </mxCell>
        <mxCell id="jNTaSUSKe1fC9ofm2qRA-92" value="" style="shape=tableRow;horizontal=0;startSize=0;swimlaneHead=0;swimlaneBody=0;strokeColor=inherit;top=0;left=0;bottom=0;right=0;collapsible=0;dropTarget=0;fillColor=none;points=[[0,0.5],[1,0.5]];portConstraint=eastwest;" parent="jNTaSUSKe1fC9ofm2qRA-91" vertex="1">
          <mxGeometry width="230" height="40" as="geometry" />
        </mxCell>
        <mxCell id="jNTaSUSKe1fC9ofm2qRA-93" value="&lt;span style=&quot;font-size: 18px;&quot;&gt;ATENDENTE&lt;/span&gt;" style="shape=partialRectangle;html=1;whiteSpace=wrap;connectable=0;strokeColor=#666666;overflow=hidden;fillColor=#f5f5f5;top=0;left=0;bottom=0;right=0;pointerEvents=1;rowspan=1;colspan=2;gradientColor=#b3b3b3;" parent="jNTaSUSKe1fC9ofm2qRA-92" vertex="1">
          <mxGeometry width="230" height="40" as="geometry">
            <mxRectangle width="60" height="40" as="alternateBounds" />
          </mxGeometry>
        </mxCell>
        <mxCell id="jNTaSUSKe1fC9ofm2qRA-94" value="&lt;font style=&quot;font-size: 18px;&quot;&gt;Livro&lt;/font&gt;" style="shape=partialRectangle;html=1;whiteSpace=wrap;connectable=0;strokeColor=inherit;overflow=hidden;fillColor=none;top=0;left=0;bottom=0;right=0;pointerEvents=1;" parent="jNTaSUSKe1fC9ofm2qRA-92" vertex="1" visible="0">
          <mxGeometry x="60" width="170" height="40" as="geometry">
            <mxRectangle width="170" height="40" as="alternateBounds" />
          </mxGeometry>
        </mxCell>
        <mxCell id="jNTaSUSKe1fC9ofm2qRA-95" value="" style="shape=tableRow;horizontal=0;startSize=0;swimlaneHead=0;swimlaneBody=0;strokeColor=inherit;top=0;left=0;bottom=0;right=0;collapsible=0;dropTarget=0;fillColor=none;points=[[0,0.5],[1,0.5]];portConstraint=eastwest;" parent="jNTaSUSKe1fC9ofm2qRA-91" vertex="1">
          <mxGeometry y="40" width="230" height="40" as="geometry" />
        </mxCell>
        <mxCell id="jNTaSUSKe1fC9ofm2qRA-96" value="PK" style="shape=partialRectangle;html=1;whiteSpace=wrap;connectable=0;strokeColor=inherit;overflow=hidden;fillColor=none;top=0;left=0;bottom=0;right=0;pointerEvents=1;" parent="jNTaSUSKe1fC9ofm2qRA-95" vertex="1">
          <mxGeometry width="60" height="40" as="geometry">
            <mxRectangle width="60" height="40" as="alternateBounds" />
          </mxGeometry>
        </mxCell>
        <mxCell id="jNTaSUSKe1fC9ofm2qRA-97" value="Id_atendente" style="shape=partialRectangle;html=1;whiteSpace=wrap;connectable=0;strokeColor=inherit;overflow=hidden;fillColor=none;top=0;left=0;bottom=0;right=0;pointerEvents=1;" parent="jNTaSUSKe1fC9ofm2qRA-95" vertex="1">
          <mxGeometry x="60" width="170" height="40" as="geometry">
            <mxRectangle width="170" height="40" as="alternateBounds" />
          </mxGeometry>
        </mxCell>
        <mxCell id="jNTaSUSKe1fC9ofm2qRA-98" value="" style="shape=tableRow;horizontal=0;startSize=0;swimlaneHead=0;swimlaneBody=0;strokeColor=inherit;top=0;left=0;bottom=0;right=0;collapsible=0;dropTarget=0;fillColor=none;points=[[0,0.5],[1,0.5]];portConstraint=eastwest;" parent="jNTaSUSKe1fC9ofm2qRA-91" vertex="1">
          <mxGeometry y="80" width="230" height="40" as="geometry" />
        </mxCell>
        <mxCell id="jNTaSUSKe1fC9ofm2qRA-99" style="shape=partialRectangle;html=1;whiteSpace=wrap;connectable=0;strokeColor=inherit;overflow=hidden;fillColor=none;top=0;left=0;bottom=0;right=0;pointerEvents=1;" parent="jNTaSUSKe1fC9ofm2qRA-98" vertex="1">
          <mxGeometry width="60" height="40" as="geometry">
            <mxRectangle width="60" height="40" as="alternateBounds" />
          </mxGeometry>
        </mxCell>
        <mxCell id="jNTaSUSKe1fC9ofm2qRA-100" value="nome" style="shape=partialRectangle;html=1;whiteSpace=wrap;connectable=0;strokeColor=inherit;overflow=hidden;fillColor=none;top=0;left=0;bottom=0;right=0;pointerEvents=1;" parent="jNTaSUSKe1fC9ofm2qRA-98" vertex="1">
          <mxGeometry x="60" width="170" height="40" as="geometry">
            <mxRectangle width="170" height="40" as="alternateBounds" />
          </mxGeometry>
        </mxCell>
        <mxCell id="jNTaSUSKe1fC9ofm2qRA-101" value="" style="shape=tableRow;horizontal=0;startSize=0;swimlaneHead=0;swimlaneBody=0;strokeColor=inherit;top=0;left=0;bottom=0;right=0;collapsible=0;dropTarget=0;fillColor=none;points=[[0,0.5],[1,0.5]];portConstraint=eastwest;" parent="jNTaSUSKe1fC9ofm2qRA-91" vertex="1">
          <mxGeometry y="120" width="230" height="40" as="geometry" />
        </mxCell>
        <mxCell id="jNTaSUSKe1fC9ofm2qRA-102" style="shape=partialRectangle;html=1;whiteSpace=wrap;connectable=0;strokeColor=inherit;overflow=hidden;fillColor=none;top=0;left=0;bottom=0;right=0;pointerEvents=1;" parent="jNTaSUSKe1fC9ofm2qRA-101" vertex="1">
          <mxGeometry width="60" height="40" as="geometry">
            <mxRectangle width="60" height="40" as="alternateBounds" />
          </mxGeometry>
        </mxCell>
        <mxCell id="jNTaSUSKe1fC9ofm2qRA-103" value="telefone" style="shape=partialRectangle;html=1;whiteSpace=wrap;connectable=0;strokeColor=inherit;overflow=hidden;fillColor=none;top=0;left=0;bottom=0;right=0;pointerEvents=1;" parent="jNTaSUSKe1fC9ofm2qRA-101" vertex="1">
          <mxGeometry x="60" width="170" height="40" as="geometry">
            <mxRectangle width="170" height="40" as="alternateBounds" />
          </mxGeometry>
        </mxCell>
        <mxCell id="jNTaSUSKe1fC9ofm2qRA-104" value="" style="shape=tableRow;horizontal=0;startSize=0;swimlaneHead=0;swimlaneBody=0;strokeColor=inherit;top=0;left=0;bottom=0;right=0;collapsible=0;dropTarget=0;fillColor=none;points=[[0,0.5],[1,0.5]];portConstraint=eastwest;" parent="jNTaSUSKe1fC9ofm2qRA-91" vertex="1">
          <mxGeometry y="160" width="230" height="40" as="geometry" />
        </mxCell>
        <mxCell id="jNTaSUSKe1fC9ofm2qRA-105" style="shape=partialRectangle;html=1;whiteSpace=wrap;connectable=0;strokeColor=inherit;overflow=hidden;fillColor=none;top=0;left=0;bottom=0;right=0;pointerEvents=1;" parent="jNTaSUSKe1fC9ofm2qRA-104" vertex="1">
          <mxGeometry width="60" height="40" as="geometry">
            <mxRectangle width="60" height="40" as="alternateBounds" />
          </mxGeometry>
        </mxCell>
        <mxCell id="jNTaSUSKe1fC9ofm2qRA-106" value="email" style="shape=partialRectangle;html=1;whiteSpace=wrap;connectable=0;strokeColor=inherit;overflow=hidden;fillColor=none;top=0;left=0;bottom=0;right=0;pointerEvents=1;" parent="jNTaSUSKe1fC9ofm2qRA-104" vertex="1">
          <mxGeometry x="60" width="170" height="40" as="geometry">
            <mxRectangle width="170" height="40" as="alternateBounds" />
          </mxGeometry>
        </mxCell>
        <mxCell id="gTCKxjx8eckYjmwAqk5_-66" style="shape=tableRow;horizontal=0;startSize=0;swimlaneHead=0;swimlaneBody=0;strokeColor=inherit;top=0;left=0;bottom=0;right=0;collapsible=0;dropTarget=0;fillColor=none;points=[[0,0.5],[1,0.5]];portConstraint=eastwest;" parent="jNTaSUSKe1fC9ofm2qRA-91" vertex="1">
          <mxGeometry y="200" width="230" height="40" as="geometry" />
        </mxCell>
        <mxCell id="gTCKxjx8eckYjmwAqk5_-67" value="FK" style="shape=partialRectangle;html=1;whiteSpace=wrap;connectable=0;strokeColor=inherit;overflow=hidden;fillColor=none;top=0;left=0;bottom=0;right=0;pointerEvents=1;" parent="gTCKxjx8eckYjmwAqk5_-66" vertex="1">
          <mxGeometry width="60" height="40" as="geometry">
            <mxRectangle width="60" height="40" as="alternateBounds" />
          </mxGeometry>
        </mxCell>
        <mxCell id="gTCKxjx8eckYjmwAqk5_-68" value="id_loja" style="shape=partialRectangle;html=1;whiteSpace=wrap;connectable=0;strokeColor=inherit;overflow=hidden;fillColor=none;top=0;left=0;bottom=0;right=0;pointerEvents=1;" parent="gTCKxjx8eckYjmwAqk5_-66" vertex="1">
          <mxGeometry x="60" width="170" height="40" as="geometry">
            <mxRectangle width="170" height="40" as="alternateBounds" />
          </mxGeometry>
        </mxCell>
        <mxCell id="jNTaSUSKe1fC9ofm2qRA-256" value="" style="shape=table;startSize=0;container=1;collapsible=0;childLayout=tableLayout;" parent="1" vertex="1">
          <mxGeometry x="1090" y="536.5" width="230" height="96" as="geometry" />
        </mxCell>
        <mxCell id="jNTaSUSKe1fC9ofm2qRA-257" value="" style="shape=tableRow;horizontal=0;startSize=0;swimlaneHead=0;swimlaneBody=0;strokeColor=inherit;top=0;left=0;bottom=0;right=0;collapsible=0;dropTarget=0;fillColor=none;points=[[0,0.5],[1,0.5]];portConstraint=eastwest;" parent="jNTaSUSKe1fC9ofm2qRA-256" vertex="1">
          <mxGeometry width="230" height="32" as="geometry" />
        </mxCell>
        <mxCell id="jNTaSUSKe1fC9ofm2qRA-258" value="&lt;span style=&quot;font-size: 18px;&quot;&gt;AUTOR&lt;/span&gt;" style="shape=partialRectangle;html=1;whiteSpace=wrap;connectable=0;strokeColor=#666666;overflow=hidden;fillColor=#f5f5f5;top=0;left=0;bottom=0;right=0;pointerEvents=1;rowspan=1;colspan=2;gradientColor=#b3b3b3;" parent="jNTaSUSKe1fC9ofm2qRA-257" vertex="1">
          <mxGeometry width="230" height="32" as="geometry">
            <mxRectangle width="60" height="32" as="alternateBounds" />
          </mxGeometry>
        </mxCell>
        <mxCell id="jNTaSUSKe1fC9ofm2qRA-259" value="&lt;font style=&quot;font-size: 18px;&quot;&gt;Livro&lt;/font&gt;" style="shape=partialRectangle;html=1;whiteSpace=wrap;connectable=0;strokeColor=inherit;overflow=hidden;fillColor=none;top=0;left=0;bottom=0;right=0;pointerEvents=1;" parent="jNTaSUSKe1fC9ofm2qRA-257" vertex="1" visible="0">
          <mxGeometry x="60" width="170" height="32" as="geometry">
            <mxRectangle width="170" height="32" as="alternateBounds" />
          </mxGeometry>
        </mxCell>
        <mxCell id="jNTaSUSKe1fC9ofm2qRA-277" value="" style="shape=tableRow;horizontal=0;startSize=0;swimlaneHead=0;swimlaneBody=0;strokeColor=inherit;top=0;left=0;bottom=0;right=0;collapsible=0;dropTarget=0;fillColor=none;points=[[0,0.5],[1,0.5]];portConstraint=eastwest;" parent="jNTaSUSKe1fC9ofm2qRA-256" vertex="1">
          <mxGeometry y="32" width="230" height="32" as="geometry" />
        </mxCell>
        <mxCell id="jNTaSUSKe1fC9ofm2qRA-278" value="PK" style="shape=partialRectangle;html=1;whiteSpace=wrap;connectable=0;strokeColor=inherit;overflow=hidden;fillColor=none;top=0;left=0;bottom=0;right=0;pointerEvents=1;" parent="jNTaSUSKe1fC9ofm2qRA-277" vertex="1">
          <mxGeometry width="60" height="32" as="geometry">
            <mxRectangle width="60" height="32" as="alternateBounds" />
          </mxGeometry>
        </mxCell>
        <mxCell id="jNTaSUSKe1fC9ofm2qRA-279" value="id_autor" style="shape=partialRectangle;html=1;whiteSpace=wrap;connectable=0;strokeColor=inherit;overflow=hidden;fillColor=none;top=0;left=0;bottom=0;right=0;pointerEvents=1;" parent="jNTaSUSKe1fC9ofm2qRA-277" vertex="1">
          <mxGeometry x="60" width="170" height="32" as="geometry">
            <mxRectangle width="170" height="32" as="alternateBounds" />
          </mxGeometry>
        </mxCell>
        <mxCell id="jNTaSUSKe1fC9ofm2qRA-280" value="" style="shape=tableRow;horizontal=0;startSize=0;swimlaneHead=0;swimlaneBody=0;strokeColor=inherit;top=0;left=0;bottom=0;right=0;collapsible=0;dropTarget=0;fillColor=none;points=[[0,0.5],[1,0.5]];portConstraint=eastwest;" parent="jNTaSUSKe1fC9ofm2qRA-256" vertex="1">
          <mxGeometry y="64" width="230" height="32" as="geometry" />
        </mxCell>
        <mxCell id="jNTaSUSKe1fC9ofm2qRA-281" value="" style="shape=partialRectangle;html=1;whiteSpace=wrap;connectable=0;strokeColor=inherit;overflow=hidden;fillColor=none;top=0;left=0;bottom=0;right=0;pointerEvents=1;" parent="jNTaSUSKe1fC9ofm2qRA-280" vertex="1">
          <mxGeometry width="60" height="32" as="geometry">
            <mxRectangle width="60" height="32" as="alternateBounds" />
          </mxGeometry>
        </mxCell>
        <mxCell id="jNTaSUSKe1fC9ofm2qRA-282" value="nome" style="shape=partialRectangle;html=1;whiteSpace=wrap;connectable=0;strokeColor=inherit;overflow=hidden;fillColor=none;top=0;left=0;bottom=0;right=0;pointerEvents=1;" parent="jNTaSUSKe1fC9ofm2qRA-280" vertex="1">
          <mxGeometry x="60" width="170" height="32" as="geometry">
            <mxRectangle width="170" height="32" as="alternateBounds" />
          </mxGeometry>
        </mxCell>
        <mxCell id="gT9VgYqtc6GmlGW1Bxi--1" value="" style="shape=table;startSize=0;container=1;collapsible=0;childLayout=tableLayout;" parent="1" vertex="1">
          <mxGeometry x="1090" y="1140" width="230" height="240" as="geometry" />
        </mxCell>
        <mxCell id="gT9VgYqtc6GmlGW1Bxi--2" value="" style="shape=tableRow;horizontal=0;startSize=0;swimlaneHead=0;swimlaneBody=0;strokeColor=inherit;top=0;left=0;bottom=0;right=0;collapsible=0;dropTarget=0;fillColor=none;points=[[0,0.5],[1,0.5]];portConstraint=eastwest;" parent="gT9VgYqtc6GmlGW1Bxi--1" vertex="1">
          <mxGeometry width="230" height="40" as="geometry" />
        </mxCell>
        <mxCell id="gT9VgYqtc6GmlGW1Bxi--3" value="&lt;span style=&quot;font-size: 18px;&quot;&gt;LOJA&lt;/span&gt;" style="shape=partialRectangle;html=1;whiteSpace=wrap;connectable=0;strokeColor=#666666;overflow=hidden;fillColor=#f5f5f5;top=0;left=0;bottom=0;right=0;pointerEvents=1;rowspan=1;colspan=2;gradientColor=#b3b3b3;" parent="gT9VgYqtc6GmlGW1Bxi--2" vertex="1">
          <mxGeometry width="230" height="40" as="geometry">
            <mxRectangle width="60" height="40" as="alternateBounds" />
          </mxGeometry>
        </mxCell>
        <mxCell id="gT9VgYqtc6GmlGW1Bxi--4" value="&lt;font style=&quot;font-size: 18px;&quot;&gt;Livro&lt;/font&gt;" style="shape=partialRectangle;html=1;whiteSpace=wrap;connectable=0;strokeColor=inherit;overflow=hidden;fillColor=none;top=0;left=0;bottom=0;right=0;pointerEvents=1;" parent="gT9VgYqtc6GmlGW1Bxi--2" vertex="1" visible="0">
          <mxGeometry x="60" width="170" height="40" as="geometry">
            <mxRectangle width="170" height="40" as="alternateBounds" />
          </mxGeometry>
        </mxCell>
        <mxCell id="gT9VgYqtc6GmlGW1Bxi--5" value="" style="shape=tableRow;horizontal=0;startSize=0;swimlaneHead=0;swimlaneBody=0;strokeColor=inherit;top=0;left=0;bottom=0;right=0;collapsible=0;dropTarget=0;fillColor=none;points=[[0,0.5],[1,0.5]];portConstraint=eastwest;" parent="gT9VgYqtc6GmlGW1Bxi--1" vertex="1">
          <mxGeometry y="40" width="230" height="40" as="geometry" />
        </mxCell>
        <mxCell id="gT9VgYqtc6GmlGW1Bxi--6" value="PK" style="shape=partialRectangle;html=1;whiteSpace=wrap;connectable=0;strokeColor=inherit;overflow=hidden;fillColor=none;top=0;left=0;bottom=0;right=0;pointerEvents=1;" parent="gT9VgYqtc6GmlGW1Bxi--5" vertex="1">
          <mxGeometry width="60" height="40" as="geometry">
            <mxRectangle width="60" height="40" as="alternateBounds" />
          </mxGeometry>
        </mxCell>
        <mxCell id="gT9VgYqtc6GmlGW1Bxi--7" value="id_loja" style="shape=partialRectangle;html=1;whiteSpace=wrap;connectable=0;strokeColor=inherit;overflow=hidden;fillColor=none;top=0;left=0;bottom=0;right=0;pointerEvents=1;" parent="gT9VgYqtc6GmlGW1Bxi--5" vertex="1">
          <mxGeometry x="60" width="170" height="40" as="geometry">
            <mxRectangle width="170" height="40" as="alternateBounds" />
          </mxGeometry>
        </mxCell>
        <mxCell id="gT9VgYqtc6GmlGW1Bxi--8" value="" style="shape=tableRow;horizontal=0;startSize=0;swimlaneHead=0;swimlaneBody=0;strokeColor=inherit;top=0;left=0;bottom=0;right=0;collapsible=0;dropTarget=0;fillColor=none;points=[[0,0.5],[1,0.5]];portConstraint=eastwest;" parent="gT9VgYqtc6GmlGW1Bxi--1" vertex="1">
          <mxGeometry y="80" width="230" height="40" as="geometry" />
        </mxCell>
        <mxCell id="gT9VgYqtc6GmlGW1Bxi--9" value="" style="shape=partialRectangle;html=1;whiteSpace=wrap;connectable=0;strokeColor=inherit;overflow=hidden;fillColor=none;top=0;left=0;bottom=0;right=0;pointerEvents=1;" parent="gT9VgYqtc6GmlGW1Bxi--8" vertex="1">
          <mxGeometry width="60" height="40" as="geometry">
            <mxRectangle width="60" height="40" as="alternateBounds" />
          </mxGeometry>
        </mxCell>
        <mxCell id="gT9VgYqtc6GmlGW1Bxi--10" value="nome" style="shape=partialRectangle;html=1;whiteSpace=wrap;connectable=0;strokeColor=inherit;overflow=hidden;fillColor=none;top=0;left=0;bottom=0;right=0;pointerEvents=1;" parent="gT9VgYqtc6GmlGW1Bxi--8" vertex="1">
          <mxGeometry x="60" width="170" height="40" as="geometry">
            <mxRectangle width="170" height="40" as="alternateBounds" />
          </mxGeometry>
        </mxCell>
        <mxCell id="gT9VgYqtc6GmlGW1Bxi--11" style="shape=tableRow;horizontal=0;startSize=0;swimlaneHead=0;swimlaneBody=0;strokeColor=inherit;top=0;left=0;bottom=0;right=0;collapsible=0;dropTarget=0;fillColor=none;points=[[0,0.5],[1,0.5]];portConstraint=eastwest;" parent="gT9VgYqtc6GmlGW1Bxi--1" vertex="1">
          <mxGeometry y="120" width="230" height="40" as="geometry" />
        </mxCell>
        <mxCell id="gT9VgYqtc6GmlGW1Bxi--12" value="" style="shape=partialRectangle;html=1;whiteSpace=wrap;connectable=0;strokeColor=inherit;overflow=hidden;fillColor=none;top=0;left=0;bottom=0;right=0;pointerEvents=1;" parent="gT9VgYqtc6GmlGW1Bxi--11" vertex="1">
          <mxGeometry width="60" height="40" as="geometry">
            <mxRectangle width="60" height="40" as="alternateBounds" />
          </mxGeometry>
        </mxCell>
        <mxCell id="gT9VgYqtc6GmlGW1Bxi--13" value="cidade" style="shape=partialRectangle;html=1;whiteSpace=wrap;connectable=0;strokeColor=inherit;overflow=hidden;fillColor=none;top=0;left=0;bottom=0;right=0;pointerEvents=1;" parent="gT9VgYqtc6GmlGW1Bxi--11" vertex="1">
          <mxGeometry x="60" width="170" height="40" as="geometry">
            <mxRectangle width="170" height="40" as="alternateBounds" />
          </mxGeometry>
        </mxCell>
        <mxCell id="gT9VgYqtc6GmlGW1Bxi--14" style="shape=tableRow;horizontal=0;startSize=0;swimlaneHead=0;swimlaneBody=0;strokeColor=inherit;top=0;left=0;bottom=0;right=0;collapsible=0;dropTarget=0;fillColor=none;points=[[0,0.5],[1,0.5]];portConstraint=eastwest;" parent="gT9VgYqtc6GmlGW1Bxi--1" vertex="1">
          <mxGeometry y="160" width="230" height="40" as="geometry" />
        </mxCell>
        <mxCell id="gT9VgYqtc6GmlGW1Bxi--15" style="shape=partialRectangle;html=1;whiteSpace=wrap;connectable=0;strokeColor=inherit;overflow=hidden;fillColor=none;top=0;left=0;bottom=0;right=0;pointerEvents=1;" parent="gT9VgYqtc6GmlGW1Bxi--14" vertex="1">
          <mxGeometry width="60" height="40" as="geometry">
            <mxRectangle width="60" height="40" as="alternateBounds" />
          </mxGeometry>
        </mxCell>
        <mxCell id="gT9VgYqtc6GmlGW1Bxi--16" value="endereco" style="shape=partialRectangle;html=1;whiteSpace=wrap;connectable=0;strokeColor=inherit;overflow=hidden;fillColor=none;top=0;left=0;bottom=0;right=0;pointerEvents=1;" parent="gT9VgYqtc6GmlGW1Bxi--14" vertex="1">
          <mxGeometry x="60" width="170" height="40" as="geometry">
            <mxRectangle width="170" height="40" as="alternateBounds" />
          </mxGeometry>
        </mxCell>
        <mxCell id="gTCKxjx8eckYjmwAqk5_-15" style="shape=tableRow;horizontal=0;startSize=0;swimlaneHead=0;swimlaneBody=0;strokeColor=inherit;top=0;left=0;bottom=0;right=0;collapsible=0;dropTarget=0;fillColor=none;points=[[0,0.5],[1,0.5]];portConstraint=eastwest;" parent="gT9VgYqtc6GmlGW1Bxi--1" vertex="1">
          <mxGeometry y="200" width="230" height="40" as="geometry" />
        </mxCell>
        <mxCell id="gTCKxjx8eckYjmwAqk5_-16" style="shape=partialRectangle;html=1;whiteSpace=wrap;connectable=0;strokeColor=inherit;overflow=hidden;fillColor=none;top=0;left=0;bottom=0;right=0;pointerEvents=1;" parent="gTCKxjx8eckYjmwAqk5_-15" vertex="1">
          <mxGeometry width="60" height="40" as="geometry">
            <mxRectangle width="60" height="40" as="alternateBounds" />
          </mxGeometry>
        </mxCell>
        <mxCell id="gTCKxjx8eckYjmwAqk5_-17" value="cnpj" style="shape=partialRectangle;html=1;whiteSpace=wrap;connectable=0;strokeColor=inherit;overflow=hidden;fillColor=none;top=0;left=0;bottom=0;right=0;pointerEvents=1;" parent="gTCKxjx8eckYjmwAqk5_-15" vertex="1">
          <mxGeometry x="60" width="170" height="40" as="geometry">
            <mxRectangle width="170" height="40" as="alternateBounds" />
          </mxGeometry>
        </mxCell>
        <mxCell id="gT9VgYqtc6GmlGW1Bxi--18" value="" style="shape=table;startSize=0;container=1;collapsible=0;childLayout=tableLayout;" parent="1" vertex="1">
          <mxGeometry x="790" y="690" width="230" height="360" as="geometry" />
        </mxCell>
        <mxCell id="gT9VgYqtc6GmlGW1Bxi--19" value="" style="shape=tableRow;horizontal=0;startSize=0;swimlaneHead=0;swimlaneBody=0;strokeColor=inherit;top=0;left=0;bottom=0;right=0;collapsible=0;dropTarget=0;fillColor=none;points=[[0,0.5],[1,0.5]];portConstraint=eastwest;" parent="gT9VgYqtc6GmlGW1Bxi--18" vertex="1">
          <mxGeometry width="230" height="40" as="geometry" />
        </mxCell>
        <mxCell id="gT9VgYqtc6GmlGW1Bxi--20" value="&lt;font style=&quot;font-size: 18px;&quot;&gt;NOTA FISCAL&lt;/font&gt;" style="shape=partialRectangle;html=1;whiteSpace=wrap;connectable=0;strokeColor=#666666;overflow=hidden;fillColor=#f5f5f5;top=0;left=0;bottom=0;right=0;pointerEvents=1;rowspan=1;colspan=2;gradientColor=#b3b3b3;" parent="gT9VgYqtc6GmlGW1Bxi--19" vertex="1">
          <mxGeometry width="230" height="40" as="geometry">
            <mxRectangle width="60" height="40" as="alternateBounds" />
          </mxGeometry>
        </mxCell>
        <mxCell id="gT9VgYqtc6GmlGW1Bxi--21" value="&lt;font style=&quot;font-size: 18px;&quot;&gt;Livro&lt;/font&gt;" style="shape=partialRectangle;html=1;whiteSpace=wrap;connectable=0;strokeColor=inherit;overflow=hidden;fillColor=none;top=0;left=0;bottom=0;right=0;pointerEvents=1;" parent="gT9VgYqtc6GmlGW1Bxi--19" vertex="1" visible="0">
          <mxGeometry x="60" width="170" height="40" as="geometry">
            <mxRectangle width="170" height="40" as="alternateBounds" />
          </mxGeometry>
        </mxCell>
        <mxCell id="gT9VgYqtc6GmlGW1Bxi--25" value="" style="shape=tableRow;horizontal=0;startSize=0;swimlaneHead=0;swimlaneBody=0;strokeColor=inherit;top=0;left=0;bottom=0;right=0;collapsible=0;dropTarget=0;fillColor=none;points=[[0,0.5],[1,0.5]];portConstraint=eastwest;" parent="gT9VgYqtc6GmlGW1Bxi--18" vertex="1">
          <mxGeometry y="40" width="230" height="40" as="geometry" />
        </mxCell>
        <mxCell id="gT9VgYqtc6GmlGW1Bxi--26" value="" style="shape=partialRectangle;html=1;whiteSpace=wrap;connectable=0;strokeColor=inherit;overflow=hidden;fillColor=none;top=0;left=0;bottom=0;right=0;pointerEvents=1;" parent="gT9VgYqtc6GmlGW1Bxi--25" vertex="1">
          <mxGeometry width="60" height="40" as="geometry">
            <mxRectangle width="60" height="40" as="alternateBounds" />
          </mxGeometry>
        </mxCell>
        <mxCell id="gT9VgYqtc6GmlGW1Bxi--27" value="numero_nota_fiscal" style="shape=partialRectangle;html=1;whiteSpace=wrap;connectable=0;strokeColor=inherit;overflow=hidden;fillColor=none;top=0;left=0;bottom=0;right=0;pointerEvents=1;" parent="gT9VgYqtc6GmlGW1Bxi--25" vertex="1">
          <mxGeometry x="60" width="170" height="40" as="geometry">
            <mxRectangle width="170" height="40" as="alternateBounds" />
          </mxGeometry>
        </mxCell>
        <mxCell id="gT9VgYqtc6GmlGW1Bxi--28" style="shape=tableRow;horizontal=0;startSize=0;swimlaneHead=0;swimlaneBody=0;strokeColor=inherit;top=0;left=0;bottom=0;right=0;collapsible=0;dropTarget=0;fillColor=none;points=[[0,0.5],[1,0.5]];portConstraint=eastwest;" parent="gT9VgYqtc6GmlGW1Bxi--18" vertex="1">
          <mxGeometry y="80" width="230" height="40" as="geometry" />
        </mxCell>
        <mxCell id="gT9VgYqtc6GmlGW1Bxi--29" value="FK" style="shape=partialRectangle;html=1;whiteSpace=wrap;connectable=0;strokeColor=inherit;overflow=hidden;fillColor=none;top=0;left=0;bottom=0;right=0;pointerEvents=1;" parent="gT9VgYqtc6GmlGW1Bxi--28" vertex="1">
          <mxGeometry width="60" height="40" as="geometry">
            <mxRectangle width="60" height="40" as="alternateBounds" />
          </mxGeometry>
        </mxCell>
        <mxCell id="gT9VgYqtc6GmlGW1Bxi--30" value="id_tipo_de_pagamento" style="shape=partialRectangle;html=1;whiteSpace=wrap;connectable=0;strokeColor=inherit;overflow=hidden;fillColor=none;top=0;left=0;bottom=0;right=0;pointerEvents=1;" parent="gT9VgYqtc6GmlGW1Bxi--28" vertex="1">
          <mxGeometry x="60" width="170" height="40" as="geometry">
            <mxRectangle width="170" height="40" as="alternateBounds" />
          </mxGeometry>
        </mxCell>
        <mxCell id="FkXMdZm9MM7ueJ2MI9rE-5" style="shape=tableRow;horizontal=0;startSize=0;swimlaneHead=0;swimlaneBody=0;strokeColor=inherit;top=0;left=0;bottom=0;right=0;collapsible=0;dropTarget=0;fillColor=none;points=[[0,0.5],[1,0.5]];portConstraint=eastwest;" vertex="1" parent="gT9VgYqtc6GmlGW1Bxi--18">
          <mxGeometry y="120" width="230" height="40" as="geometry" />
        </mxCell>
        <mxCell id="FkXMdZm9MM7ueJ2MI9rE-6" value="FK" style="shape=partialRectangle;html=1;whiteSpace=wrap;connectable=0;strokeColor=inherit;overflow=hidden;fillColor=none;top=0;left=0;bottom=0;right=0;pointerEvents=1;" vertex="1" parent="FkXMdZm9MM7ueJ2MI9rE-5">
          <mxGeometry width="60" height="40" as="geometry">
            <mxRectangle width="60" height="40" as="alternateBounds" />
          </mxGeometry>
        </mxCell>
        <mxCell id="FkXMdZm9MM7ueJ2MI9rE-7" value="id_venda" style="shape=partialRectangle;html=1;whiteSpace=wrap;connectable=0;strokeColor=inherit;overflow=hidden;fillColor=none;top=0;left=0;bottom=0;right=0;pointerEvents=1;" vertex="1" parent="FkXMdZm9MM7ueJ2MI9rE-5">
          <mxGeometry x="60" width="170" height="40" as="geometry">
            <mxRectangle width="170" height="40" as="alternateBounds" />
          </mxGeometry>
        </mxCell>
        <mxCell id="gT9VgYqtc6GmlGW1Bxi--31" style="shape=tableRow;horizontal=0;startSize=0;swimlaneHead=0;swimlaneBody=0;strokeColor=inherit;top=0;left=0;bottom=0;right=0;collapsible=0;dropTarget=0;fillColor=none;points=[[0,0.5],[1,0.5]];portConstraint=eastwest;" parent="gT9VgYqtc6GmlGW1Bxi--18" vertex="1">
          <mxGeometry y="160" width="230" height="40" as="geometry" />
        </mxCell>
        <mxCell id="gT9VgYqtc6GmlGW1Bxi--32" value="FK" style="shape=partialRectangle;html=1;whiteSpace=wrap;connectable=0;strokeColor=inherit;overflow=hidden;fillColor=none;top=0;left=0;bottom=0;right=0;pointerEvents=1;" parent="gT9VgYqtc6GmlGW1Bxi--31" vertex="1">
          <mxGeometry width="60" height="40" as="geometry">
            <mxRectangle width="60" height="40" as="alternateBounds" />
          </mxGeometry>
        </mxCell>
        <mxCell id="gT9VgYqtc6GmlGW1Bxi--33" value="id_cliente" style="shape=partialRectangle;html=1;whiteSpace=wrap;connectable=0;strokeColor=inherit;overflow=hidden;fillColor=none;top=0;left=0;bottom=0;right=0;pointerEvents=1;" parent="gT9VgYqtc6GmlGW1Bxi--31" vertex="1">
          <mxGeometry x="60" width="170" height="40" as="geometry">
            <mxRectangle width="170" height="40" as="alternateBounds" />
          </mxGeometry>
        </mxCell>
        <mxCell id="gT9VgYqtc6GmlGW1Bxi--34" style="shape=tableRow;horizontal=0;startSize=0;swimlaneHead=0;swimlaneBody=0;strokeColor=inherit;top=0;left=0;bottom=0;right=0;collapsible=0;dropTarget=0;fillColor=none;points=[[0,0.5],[1,0.5]];portConstraint=eastwest;" parent="gT9VgYqtc6GmlGW1Bxi--18" vertex="1">
          <mxGeometry y="200" width="230" height="40" as="geometry" />
        </mxCell>
        <mxCell id="gT9VgYqtc6GmlGW1Bxi--35" value="" style="shape=partialRectangle;html=1;whiteSpace=wrap;connectable=0;strokeColor=inherit;overflow=hidden;fillColor=none;top=0;left=0;bottom=0;right=0;pointerEvents=1;" parent="gT9VgYqtc6GmlGW1Bxi--34" vertex="1">
          <mxGeometry width="60" height="40" as="geometry">
            <mxRectangle width="60" height="40" as="alternateBounds" />
          </mxGeometry>
        </mxCell>
        <mxCell id="gT9VgYqtc6GmlGW1Bxi--36" value="valor_nf" style="shape=partialRectangle;html=1;whiteSpace=wrap;connectable=0;strokeColor=inherit;overflow=hidden;fillColor=none;top=0;left=0;bottom=0;right=0;pointerEvents=1;" parent="gT9VgYqtc6GmlGW1Bxi--34" vertex="1">
          <mxGeometry x="60" width="170" height="40" as="geometry">
            <mxRectangle width="170" height="40" as="alternateBounds" />
          </mxGeometry>
        </mxCell>
        <mxCell id="YWftSJb1BG-HpuaoZzgN-4" style="shape=tableRow;horizontal=0;startSize=0;swimlaneHead=0;swimlaneBody=0;strokeColor=inherit;top=0;left=0;bottom=0;right=0;collapsible=0;dropTarget=0;fillColor=none;points=[[0,0.5],[1,0.5]];portConstraint=eastwest;" parent="gT9VgYqtc6GmlGW1Bxi--18" vertex="1">
          <mxGeometry y="240" width="230" height="40" as="geometry" />
        </mxCell>
        <mxCell id="YWftSJb1BG-HpuaoZzgN-5" value="FK" style="shape=partialRectangle;html=1;whiteSpace=wrap;connectable=0;strokeColor=inherit;overflow=hidden;fillColor=none;top=0;left=0;bottom=0;right=0;pointerEvents=1;" parent="YWftSJb1BG-HpuaoZzgN-4" vertex="1">
          <mxGeometry width="60" height="40" as="geometry">
            <mxRectangle width="60" height="40" as="alternateBounds" />
          </mxGeometry>
        </mxCell>
        <mxCell id="YWftSJb1BG-HpuaoZzgN-6" value="&lt;span style=&quot;font-weight: normal;&quot;&gt;id_atendente&lt;/span&gt;" style="shape=partialRectangle;html=1;whiteSpace=wrap;connectable=0;strokeColor=inherit;overflow=hidden;fillColor=none;top=0;left=0;bottom=0;right=0;pointerEvents=1;fontStyle=1" parent="YWftSJb1BG-HpuaoZzgN-4" vertex="1">
          <mxGeometry x="60" width="170" height="40" as="geometry">
            <mxRectangle width="170" height="40" as="alternateBounds" />
          </mxGeometry>
        </mxCell>
        <mxCell id="YWftSJb1BG-HpuaoZzgN-1" style="shape=tableRow;horizontal=0;startSize=0;swimlaneHead=0;swimlaneBody=0;strokeColor=inherit;top=0;left=0;bottom=0;right=0;collapsible=0;dropTarget=0;fillColor=none;points=[[0,0.5],[1,0.5]];portConstraint=eastwest;" parent="gT9VgYqtc6GmlGW1Bxi--18" vertex="1">
          <mxGeometry y="280" width="230" height="40" as="geometry" />
        </mxCell>
        <mxCell id="YWftSJb1BG-HpuaoZzgN-2" style="shape=partialRectangle;html=1;whiteSpace=wrap;connectable=0;strokeColor=inherit;overflow=hidden;fillColor=none;top=0;left=0;bottom=0;right=0;pointerEvents=1;" parent="YWftSJb1BG-HpuaoZzgN-1" vertex="1">
          <mxGeometry width="60" height="40" as="geometry">
            <mxRectangle width="60" height="40" as="alternateBounds" />
          </mxGeometry>
        </mxCell>
        <mxCell id="YWftSJb1BG-HpuaoZzgN-3" value="data_nota" style="shape=partialRectangle;html=1;whiteSpace=wrap;connectable=0;strokeColor=inherit;overflow=hidden;fillColor=none;top=0;left=0;bottom=0;right=0;pointerEvents=1;" parent="YWftSJb1BG-HpuaoZzgN-1" vertex="1">
          <mxGeometry x="60" width="170" height="40" as="geometry">
            <mxRectangle width="170" height="40" as="alternateBounds" />
          </mxGeometry>
        </mxCell>
        <mxCell id="YWftSJb1BG-HpuaoZzgN-87" style="shape=tableRow;horizontal=0;startSize=0;swimlaneHead=0;swimlaneBody=0;strokeColor=inherit;top=0;left=0;bottom=0;right=0;collapsible=0;dropTarget=0;fillColor=none;points=[[0,0.5],[1,0.5]];portConstraint=eastwest;" parent="gT9VgYqtc6GmlGW1Bxi--18" vertex="1">
          <mxGeometry y="320" width="230" height="40" as="geometry" />
        </mxCell>
        <mxCell id="YWftSJb1BG-HpuaoZzgN-88" value="PK" style="shape=partialRectangle;html=1;whiteSpace=wrap;connectable=0;strokeColor=inherit;overflow=hidden;fillColor=none;top=0;left=0;bottom=0;right=0;pointerEvents=1;" parent="YWftSJb1BG-HpuaoZzgN-87" vertex="1">
          <mxGeometry width="60" height="40" as="geometry">
            <mxRectangle width="60" height="40" as="alternateBounds" />
          </mxGeometry>
        </mxCell>
        <mxCell id="YWftSJb1BG-HpuaoZzgN-89" value="id_nf" style="shape=partialRectangle;html=1;whiteSpace=wrap;connectable=0;strokeColor=inherit;overflow=hidden;fillColor=none;top=0;left=0;bottom=0;right=0;pointerEvents=1;" parent="YWftSJb1BG-HpuaoZzgN-87" vertex="1">
          <mxGeometry x="60" width="170" height="40" as="geometry">
            <mxRectangle width="170" height="40" as="alternateBounds" />
          </mxGeometry>
        </mxCell>
        <mxCell id="gT9VgYqtc6GmlGW1Bxi--40" value="" style="shape=table;startSize=0;container=1;collapsible=0;childLayout=tableLayout;" parent="1" vertex="1">
          <mxGeometry x="460" y="770" width="230" height="250" as="geometry" />
        </mxCell>
        <mxCell id="gT9VgYqtc6GmlGW1Bxi--41" value="" style="shape=tableRow;horizontal=0;startSize=0;swimlaneHead=0;swimlaneBody=0;strokeColor=inherit;top=0;left=0;bottom=0;right=0;collapsible=0;dropTarget=0;fillColor=none;points=[[0,0.5],[1,0.5]];portConstraint=eastwest;" parent="gT9VgYqtc6GmlGW1Bxi--40" vertex="1">
          <mxGeometry width="230" height="50" as="geometry" />
        </mxCell>
        <mxCell id="gT9VgYqtc6GmlGW1Bxi--42" value="&lt;span style=&quot;font-size: 18px;&quot;&gt;HISTORICO RECEBIMENTO&lt;/span&gt;" style="shape=partialRectangle;html=1;whiteSpace=wrap;connectable=0;strokeColor=#666666;overflow=hidden;fillColor=#f5f5f5;top=0;left=0;bottom=0;right=0;pointerEvents=1;rowspan=1;colspan=2;gradientColor=#b3b3b3;" parent="gT9VgYqtc6GmlGW1Bxi--41" vertex="1">
          <mxGeometry width="230" height="50" as="geometry">
            <mxRectangle width="60" height="50" as="alternateBounds" />
          </mxGeometry>
        </mxCell>
        <mxCell id="gT9VgYqtc6GmlGW1Bxi--43" value="&lt;font style=&quot;font-size: 18px;&quot;&gt;Livro&lt;/font&gt;" style="shape=partialRectangle;html=1;whiteSpace=wrap;connectable=0;strokeColor=inherit;overflow=hidden;fillColor=none;top=0;left=0;bottom=0;right=0;pointerEvents=1;" parent="gT9VgYqtc6GmlGW1Bxi--41" vertex="1" visible="0">
          <mxGeometry x="60" width="170" height="50" as="geometry">
            <mxRectangle width="170" height="50" as="alternateBounds" />
          </mxGeometry>
        </mxCell>
        <mxCell id="gT9VgYqtc6GmlGW1Bxi--44" value="" style="shape=tableRow;horizontal=0;startSize=0;swimlaneHead=0;swimlaneBody=0;strokeColor=inherit;top=0;left=0;bottom=0;right=0;collapsible=0;dropTarget=0;fillColor=none;points=[[0,0.5],[1,0.5]];portConstraint=eastwest;" parent="gT9VgYqtc6GmlGW1Bxi--40" vertex="1">
          <mxGeometry y="50" width="230" height="40" as="geometry" />
        </mxCell>
        <mxCell id="gT9VgYqtc6GmlGW1Bxi--45" value="PK" style="shape=partialRectangle;html=1;whiteSpace=wrap;connectable=0;strokeColor=inherit;overflow=hidden;fillColor=none;top=0;left=0;bottom=0;right=0;pointerEvents=1;" parent="gT9VgYqtc6GmlGW1Bxi--44" vertex="1">
          <mxGeometry width="60" height="40" as="geometry">
            <mxRectangle width="60" height="40" as="alternateBounds" />
          </mxGeometry>
        </mxCell>
        <mxCell id="gT9VgYqtc6GmlGW1Bxi--46" value="id_h_recebimento" style="shape=partialRectangle;html=1;whiteSpace=wrap;connectable=0;strokeColor=inherit;overflow=hidden;fillColor=none;top=0;left=0;bottom=0;right=0;pointerEvents=1;" parent="gT9VgYqtc6GmlGW1Bxi--44" vertex="1">
          <mxGeometry x="60" width="170" height="40" as="geometry">
            <mxRectangle width="170" height="40" as="alternateBounds" />
          </mxGeometry>
        </mxCell>
        <mxCell id="gT9VgYqtc6GmlGW1Bxi--47" value="" style="shape=tableRow;horizontal=0;startSize=0;swimlaneHead=0;swimlaneBody=0;strokeColor=inherit;top=0;left=0;bottom=0;right=0;collapsible=0;dropTarget=0;fillColor=none;points=[[0,0.5],[1,0.5]];portConstraint=eastwest;" parent="gT9VgYqtc6GmlGW1Bxi--40" vertex="1">
          <mxGeometry y="90" width="230" height="40" as="geometry" />
        </mxCell>
        <mxCell id="gT9VgYqtc6GmlGW1Bxi--48" value="FK" style="shape=partialRectangle;html=1;whiteSpace=wrap;connectable=0;strokeColor=inherit;overflow=hidden;fillColor=none;top=0;left=0;bottom=0;right=0;pointerEvents=1;" parent="gT9VgYqtc6GmlGW1Bxi--47" vertex="1">
          <mxGeometry width="60" height="40" as="geometry">
            <mxRectangle width="60" height="40" as="alternateBounds" />
          </mxGeometry>
        </mxCell>
        <mxCell id="gT9VgYqtc6GmlGW1Bxi--49" value="id_prog_recebimento" style="shape=partialRectangle;html=1;whiteSpace=wrap;connectable=0;strokeColor=inherit;overflow=hidden;fillColor=none;top=0;left=0;bottom=0;right=0;pointerEvents=1;" parent="gT9VgYqtc6GmlGW1Bxi--47" vertex="1">
          <mxGeometry x="60" width="170" height="40" as="geometry">
            <mxRectangle width="170" height="40" as="alternateBounds" />
          </mxGeometry>
        </mxCell>
        <mxCell id="gT9VgYqtc6GmlGW1Bxi--87" style="shape=tableRow;horizontal=0;startSize=0;swimlaneHead=0;swimlaneBody=0;strokeColor=inherit;top=0;left=0;bottom=0;right=0;collapsible=0;dropTarget=0;fillColor=none;points=[[0,0.5],[1,0.5]];portConstraint=eastwest;" parent="gT9VgYqtc6GmlGW1Bxi--40" vertex="1">
          <mxGeometry y="130" width="230" height="40" as="geometry" />
        </mxCell>
        <mxCell id="gT9VgYqtc6GmlGW1Bxi--88" value="FK" style="shape=partialRectangle;html=1;whiteSpace=wrap;connectable=0;strokeColor=inherit;overflow=hidden;fillColor=none;top=0;left=0;bottom=0;right=0;pointerEvents=1;" parent="gT9VgYqtc6GmlGW1Bxi--87" vertex="1">
          <mxGeometry width="60" height="40" as="geometry">
            <mxRectangle width="60" height="40" as="alternateBounds" />
          </mxGeometry>
        </mxCell>
        <mxCell id="gT9VgYqtc6GmlGW1Bxi--89" value="id_tipo_desconto" style="shape=partialRectangle;html=1;whiteSpace=wrap;connectable=0;strokeColor=inherit;overflow=hidden;fillColor=none;top=0;left=0;bottom=0;right=0;pointerEvents=1;" parent="gT9VgYqtc6GmlGW1Bxi--87" vertex="1">
          <mxGeometry x="60" width="170" height="40" as="geometry">
            <mxRectangle width="170" height="40" as="alternateBounds" />
          </mxGeometry>
        </mxCell>
        <mxCell id="gT9VgYqtc6GmlGW1Bxi--50" style="shape=tableRow;horizontal=0;startSize=0;swimlaneHead=0;swimlaneBody=0;strokeColor=inherit;top=0;left=0;bottom=0;right=0;collapsible=0;dropTarget=0;fillColor=none;points=[[0,0.5],[1,0.5]];portConstraint=eastwest;" parent="gT9VgYqtc6GmlGW1Bxi--40" vertex="1">
          <mxGeometry y="170" width="230" height="40" as="geometry" />
        </mxCell>
        <mxCell id="gT9VgYqtc6GmlGW1Bxi--51" value="" style="shape=partialRectangle;html=1;whiteSpace=wrap;connectable=0;strokeColor=inherit;overflow=hidden;fillColor=none;top=0;left=0;bottom=0;right=0;pointerEvents=1;" parent="gT9VgYqtc6GmlGW1Bxi--50" vertex="1">
          <mxGeometry width="60" height="40" as="geometry">
            <mxRectangle width="60" height="40" as="alternateBounds" />
          </mxGeometry>
        </mxCell>
        <mxCell id="gT9VgYqtc6GmlGW1Bxi--52" value="data_recebimento" style="shape=partialRectangle;html=1;whiteSpace=wrap;connectable=0;strokeColor=inherit;overflow=hidden;fillColor=none;top=0;left=0;bottom=0;right=0;pointerEvents=1;" parent="gT9VgYqtc6GmlGW1Bxi--50" vertex="1">
          <mxGeometry x="60" width="170" height="40" as="geometry">
            <mxRectangle width="170" height="40" as="alternateBounds" />
          </mxGeometry>
        </mxCell>
        <mxCell id="gT9VgYqtc6GmlGW1Bxi--53" style="shape=tableRow;horizontal=0;startSize=0;swimlaneHead=0;swimlaneBody=0;strokeColor=inherit;top=0;left=0;bottom=0;right=0;collapsible=0;dropTarget=0;fillColor=none;points=[[0,0.5],[1,0.5]];portConstraint=eastwest;" parent="gT9VgYqtc6GmlGW1Bxi--40" vertex="1">
          <mxGeometry y="210" width="230" height="40" as="geometry" />
        </mxCell>
        <mxCell id="gT9VgYqtc6GmlGW1Bxi--54" style="shape=partialRectangle;html=1;whiteSpace=wrap;connectable=0;strokeColor=inherit;overflow=hidden;fillColor=none;top=0;left=0;bottom=0;right=0;pointerEvents=1;" parent="gT9VgYqtc6GmlGW1Bxi--53" vertex="1">
          <mxGeometry width="60" height="40" as="geometry">
            <mxRectangle width="60" height="40" as="alternateBounds" />
          </mxGeometry>
        </mxCell>
        <mxCell id="gT9VgYqtc6GmlGW1Bxi--55" value="valor_recebido" style="shape=partialRectangle;html=1;whiteSpace=wrap;connectable=0;strokeColor=inherit;overflow=hidden;fillColor=none;top=0;left=0;bottom=0;right=0;pointerEvents=1;" parent="gT9VgYqtc6GmlGW1Bxi--53" vertex="1">
          <mxGeometry x="60" width="170" height="40" as="geometry">
            <mxRectangle width="170" height="40" as="alternateBounds" />
          </mxGeometry>
        </mxCell>
        <mxCell id="gT9VgYqtc6GmlGW1Bxi--56" value="" style="shape=table;startSize=0;container=1;collapsible=0;childLayout=tableLayout;" parent="1" vertex="1">
          <mxGeometry x="160" y="870" width="230" height="440.0000000000002" as="geometry" />
        </mxCell>
        <mxCell id="gT9VgYqtc6GmlGW1Bxi--57" value="" style="shape=tableRow;horizontal=0;startSize=0;swimlaneHead=0;swimlaneBody=0;strokeColor=inherit;top=0;left=0;bottom=0;right=0;collapsible=0;dropTarget=0;fillColor=none;points=[[0,0.5],[1,0.5]];portConstraint=eastwest;" parent="gT9VgYqtc6GmlGW1Bxi--56" vertex="1">
          <mxGeometry width="230" height="40" as="geometry" />
        </mxCell>
        <mxCell id="gT9VgYqtc6GmlGW1Bxi--58" value="&lt;span style=&quot;font-size: 18px;&quot;&gt;TIPO DESCONTO&lt;/span&gt;" style="shape=partialRectangle;html=1;whiteSpace=wrap;connectable=0;strokeColor=#666666;overflow=hidden;fillColor=#f5f5f5;top=0;left=0;bottom=0;right=0;pointerEvents=1;rowspan=1;colspan=2;gradientColor=#b3b3b3;" parent="gT9VgYqtc6GmlGW1Bxi--57" vertex="1">
          <mxGeometry width="230" height="40" as="geometry">
            <mxRectangle width="60" height="40" as="alternateBounds" />
          </mxGeometry>
        </mxCell>
        <mxCell id="gT9VgYqtc6GmlGW1Bxi--59" value="&lt;font style=&quot;font-size: 18px;&quot;&gt;Livro&lt;/font&gt;" style="shape=partialRectangle;html=1;whiteSpace=wrap;connectable=0;strokeColor=inherit;overflow=hidden;fillColor=none;top=0;left=0;bottom=0;right=0;pointerEvents=1;" parent="gT9VgYqtc6GmlGW1Bxi--57" vertex="1" visible="0">
          <mxGeometry x="60" width="170" height="40" as="geometry">
            <mxRectangle width="170" height="40" as="alternateBounds" />
          </mxGeometry>
        </mxCell>
        <mxCell id="gT9VgYqtc6GmlGW1Bxi--60" value="" style="shape=tableRow;horizontal=0;startSize=0;swimlaneHead=0;swimlaneBody=0;strokeColor=inherit;top=0;left=0;bottom=0;right=0;collapsible=0;dropTarget=0;fillColor=none;points=[[0,0.5],[1,0.5]];portConstraint=eastwest;" parent="gT9VgYqtc6GmlGW1Bxi--56" vertex="1">
          <mxGeometry y="40" width="230" height="40" as="geometry" />
        </mxCell>
        <mxCell id="gT9VgYqtc6GmlGW1Bxi--61" value="PK" style="shape=partialRectangle;html=1;whiteSpace=wrap;connectable=0;strokeColor=inherit;overflow=hidden;fillColor=none;top=0;left=0;bottom=0;right=0;pointerEvents=1;" parent="gT9VgYqtc6GmlGW1Bxi--60" vertex="1">
          <mxGeometry width="60" height="40" as="geometry">
            <mxRectangle width="60" height="40" as="alternateBounds" />
          </mxGeometry>
        </mxCell>
        <mxCell id="gT9VgYqtc6GmlGW1Bxi--62" value="id_tipo_desconto" style="shape=partialRectangle;html=1;whiteSpace=wrap;connectable=0;strokeColor=inherit;overflow=hidden;fillColor=none;top=0;left=0;bottom=0;right=0;pointerEvents=1;" parent="gT9VgYqtc6GmlGW1Bxi--60" vertex="1">
          <mxGeometry x="60" width="170" height="40" as="geometry">
            <mxRectangle width="170" height="40" as="alternateBounds" />
          </mxGeometry>
        </mxCell>
        <mxCell id="gT9VgYqtc6GmlGW1Bxi--63" value="" style="shape=tableRow;horizontal=0;startSize=0;swimlaneHead=0;swimlaneBody=0;strokeColor=inherit;top=0;left=0;bottom=0;right=0;collapsible=0;dropTarget=0;fillColor=none;points=[[0,0.5],[1,0.5]];portConstraint=eastwest;" parent="gT9VgYqtc6GmlGW1Bxi--56" vertex="1">
          <mxGeometry y="80" width="230" height="40" as="geometry" />
        </mxCell>
        <mxCell id="gT9VgYqtc6GmlGW1Bxi--64" value="" style="shape=partialRectangle;html=1;whiteSpace=wrap;connectable=0;strokeColor=inherit;overflow=hidden;fillColor=none;top=0;left=0;bottom=0;right=0;pointerEvents=1;" parent="gT9VgYqtc6GmlGW1Bxi--63" vertex="1">
          <mxGeometry width="60" height="40" as="geometry">
            <mxRectangle width="60" height="40" as="alternateBounds" />
          </mxGeometry>
        </mxCell>
        <mxCell id="gT9VgYqtc6GmlGW1Bxi--65" value="minimo_dia" style="shape=partialRectangle;html=1;whiteSpace=wrap;connectable=0;strokeColor=inherit;overflow=hidden;fillColor=none;top=0;left=0;bottom=0;right=0;pointerEvents=1;" parent="gT9VgYqtc6GmlGW1Bxi--63" vertex="1">
          <mxGeometry x="60" width="170" height="40" as="geometry">
            <mxRectangle width="170" height="40" as="alternateBounds" />
          </mxGeometry>
        </mxCell>
        <mxCell id="gT9VgYqtc6GmlGW1Bxi--66" style="shape=tableRow;horizontal=0;startSize=0;swimlaneHead=0;swimlaneBody=0;strokeColor=inherit;top=0;left=0;bottom=0;right=0;collapsible=0;dropTarget=0;fillColor=none;points=[[0,0.5],[1,0.5]];portConstraint=eastwest;" parent="gT9VgYqtc6GmlGW1Bxi--56" vertex="1">
          <mxGeometry y="120" width="230" height="40" as="geometry" />
        </mxCell>
        <mxCell id="gT9VgYqtc6GmlGW1Bxi--67" value="" style="shape=partialRectangle;html=1;whiteSpace=wrap;connectable=0;strokeColor=inherit;overflow=hidden;fillColor=none;top=0;left=0;bottom=0;right=0;pointerEvents=1;" parent="gT9VgYqtc6GmlGW1Bxi--66" vertex="1">
          <mxGeometry width="60" height="40" as="geometry">
            <mxRectangle width="60" height="40" as="alternateBounds" />
          </mxGeometry>
        </mxCell>
        <mxCell id="gT9VgYqtc6GmlGW1Bxi--68" value="maximo_dia" style="shape=partialRectangle;html=1;whiteSpace=wrap;connectable=0;strokeColor=inherit;overflow=hidden;fillColor=none;top=0;left=0;bottom=0;right=0;pointerEvents=1;" parent="gT9VgYqtc6GmlGW1Bxi--66" vertex="1">
          <mxGeometry x="60" width="170" height="40" as="geometry">
            <mxRectangle width="170" height="40" as="alternateBounds" />
          </mxGeometry>
        </mxCell>
        <mxCell id="gT9VgYqtc6GmlGW1Bxi--69" style="shape=tableRow;horizontal=0;startSize=0;swimlaneHead=0;swimlaneBody=0;strokeColor=inherit;top=0;left=0;bottom=0;right=0;collapsible=0;dropTarget=0;fillColor=none;points=[[0,0.5],[1,0.5]];portConstraint=eastwest;" parent="gT9VgYqtc6GmlGW1Bxi--56" vertex="1">
          <mxGeometry y="160" width="230" height="40" as="geometry" />
        </mxCell>
        <mxCell id="gT9VgYqtc6GmlGW1Bxi--70" style="shape=partialRectangle;html=1;whiteSpace=wrap;connectable=0;strokeColor=inherit;overflow=hidden;fillColor=none;top=0;left=0;bottom=0;right=0;pointerEvents=1;" parent="gT9VgYqtc6GmlGW1Bxi--69" vertex="1">
          <mxGeometry width="60" height="40" as="geometry">
            <mxRectangle width="60" height="40" as="alternateBounds" />
          </mxGeometry>
        </mxCell>
        <mxCell id="gT9VgYqtc6GmlGW1Bxi--71" value="percent_min" style="shape=partialRectangle;html=1;whiteSpace=wrap;connectable=0;strokeColor=inherit;overflow=hidden;fillColor=none;top=0;left=0;bottom=0;right=0;pointerEvents=1;" parent="gT9VgYqtc6GmlGW1Bxi--69" vertex="1">
          <mxGeometry x="60" width="170" height="40" as="geometry">
            <mxRectangle width="170" height="40" as="alternateBounds" />
          </mxGeometry>
        </mxCell>
        <mxCell id="gT9VgYqtc6GmlGW1Bxi--72" style="shape=tableRow;horizontal=0;startSize=0;swimlaneHead=0;swimlaneBody=0;strokeColor=inherit;top=0;left=0;bottom=0;right=0;collapsible=0;dropTarget=0;fillColor=none;points=[[0,0.5],[1,0.5]];portConstraint=eastwest;" parent="gT9VgYqtc6GmlGW1Bxi--56" vertex="1">
          <mxGeometry y="200" width="230" height="40" as="geometry" />
        </mxCell>
        <mxCell id="gT9VgYqtc6GmlGW1Bxi--73" style="shape=partialRectangle;html=1;whiteSpace=wrap;connectable=0;strokeColor=inherit;overflow=hidden;fillColor=none;top=0;left=0;bottom=0;right=0;pointerEvents=1;" parent="gT9VgYqtc6GmlGW1Bxi--72" vertex="1">
          <mxGeometry width="60" height="40" as="geometry">
            <mxRectangle width="60" height="40" as="alternateBounds" />
          </mxGeometry>
        </mxCell>
        <mxCell id="gT9VgYqtc6GmlGW1Bxi--74" value="percent_max" style="shape=partialRectangle;html=1;whiteSpace=wrap;connectable=0;strokeColor=inherit;overflow=hidden;fillColor=none;top=0;left=0;bottom=0;right=0;pointerEvents=1;" parent="gT9VgYqtc6GmlGW1Bxi--72" vertex="1">
          <mxGeometry x="60" width="170" height="40" as="geometry">
            <mxRectangle width="170" height="40" as="alternateBounds" />
          </mxGeometry>
        </mxCell>
        <mxCell id="gT9VgYqtc6GmlGW1Bxi--75" style="shape=tableRow;horizontal=0;startSize=0;swimlaneHead=0;swimlaneBody=0;strokeColor=inherit;top=0;left=0;bottom=0;right=0;collapsible=0;dropTarget=0;fillColor=none;points=[[0,0.5],[1,0.5]];portConstraint=eastwest;" parent="gT9VgYqtc6GmlGW1Bxi--56" vertex="1">
          <mxGeometry y="240" width="230" height="40" as="geometry" />
        </mxCell>
        <mxCell id="gT9VgYqtc6GmlGW1Bxi--76" style="shape=partialRectangle;html=1;whiteSpace=wrap;connectable=0;strokeColor=inherit;overflow=hidden;fillColor=none;top=0;left=0;bottom=0;right=0;pointerEvents=1;" parent="gT9VgYqtc6GmlGW1Bxi--75" vertex="1">
          <mxGeometry width="60" height="40" as="geometry">
            <mxRectangle width="60" height="40" as="alternateBounds" />
          </mxGeometry>
        </mxCell>
        <mxCell id="gT9VgYqtc6GmlGW1Bxi--77" value="desc_desconto" style="shape=partialRectangle;html=1;whiteSpace=wrap;connectable=0;strokeColor=inherit;overflow=hidden;fillColor=none;top=0;left=0;bottom=0;right=0;pointerEvents=1;" parent="gT9VgYqtc6GmlGW1Bxi--75" vertex="1">
          <mxGeometry x="60" width="170" height="40" as="geometry">
            <mxRectangle width="170" height="40" as="alternateBounds" />
          </mxGeometry>
        </mxCell>
        <mxCell id="MK-CfrDireuOw1NUeYd8-7" style="shape=tableRow;horizontal=0;startSize=0;swimlaneHead=0;swimlaneBody=0;strokeColor=inherit;top=0;left=0;bottom=0;right=0;collapsible=0;dropTarget=0;fillColor=none;points=[[0,0.5],[1,0.5]];portConstraint=eastwest;" parent="gT9VgYqtc6GmlGW1Bxi--56" vertex="1">
          <mxGeometry y="280" width="230" height="40" as="geometry" />
        </mxCell>
        <mxCell id="MK-CfrDireuOw1NUeYd8-8" style="shape=partialRectangle;html=1;whiteSpace=wrap;connectable=0;strokeColor=inherit;overflow=hidden;fillColor=none;top=0;left=0;bottom=0;right=0;pointerEvents=1;" parent="MK-CfrDireuOw1NUeYd8-7" vertex="1">
          <mxGeometry width="60" height="40" as="geometry">
            <mxRectangle width="60" height="40" as="alternateBounds" />
          </mxGeometry>
        </mxCell>
        <mxCell id="MK-CfrDireuOw1NUeYd8-9" value="data_aprovacao" style="shape=partialRectangle;html=1;whiteSpace=wrap;connectable=0;strokeColor=inherit;overflow=hidden;fillColor=none;top=0;left=0;bottom=0;right=0;pointerEvents=1;" parent="MK-CfrDireuOw1NUeYd8-7" vertex="1">
          <mxGeometry x="60" width="170" height="40" as="geometry">
            <mxRectangle width="170" height="40" as="alternateBounds" />
          </mxGeometry>
        </mxCell>
        <mxCell id="MK-CfrDireuOw1NUeYd8-4" style="shape=tableRow;horizontal=0;startSize=0;swimlaneHead=0;swimlaneBody=0;strokeColor=inherit;top=0;left=0;bottom=0;right=0;collapsible=0;dropTarget=0;fillColor=none;points=[[0,0.5],[1,0.5]];portConstraint=eastwest;" parent="gT9VgYqtc6GmlGW1Bxi--56" vertex="1">
          <mxGeometry y="320" width="230" height="40" as="geometry" />
        </mxCell>
        <mxCell id="MK-CfrDireuOw1NUeYd8-5" style="shape=partialRectangle;html=1;whiteSpace=wrap;connectable=0;strokeColor=inherit;overflow=hidden;fillColor=none;top=0;left=0;bottom=0;right=0;pointerEvents=1;" parent="MK-CfrDireuOw1NUeYd8-4" vertex="1">
          <mxGeometry width="60" height="40" as="geometry">
            <mxRectangle width="60" height="40" as="alternateBounds" />
          </mxGeometry>
        </mxCell>
        <mxCell id="MK-CfrDireuOw1NUeYd8-6" value="aprovador" style="shape=partialRectangle;html=1;whiteSpace=wrap;connectable=0;strokeColor=inherit;overflow=hidden;fillColor=none;top=0;left=0;bottom=0;right=0;pointerEvents=1;" parent="MK-CfrDireuOw1NUeYd8-4" vertex="1">
          <mxGeometry x="60" width="170" height="40" as="geometry">
            <mxRectangle width="170" height="40" as="alternateBounds" />
          </mxGeometry>
        </mxCell>
        <mxCell id="gT9VgYqtc6GmlGW1Bxi--78" style="shape=tableRow;horizontal=0;startSize=0;swimlaneHead=0;swimlaneBody=0;strokeColor=inherit;top=0;left=0;bottom=0;right=0;collapsible=0;dropTarget=0;fillColor=none;points=[[0,0.5],[1,0.5]];portConstraint=eastwest;" parent="gT9VgYqtc6GmlGW1Bxi--56" vertex="1">
          <mxGeometry y="360" width="230" height="40" as="geometry" />
        </mxCell>
        <mxCell id="gT9VgYqtc6GmlGW1Bxi--79" style="shape=partialRectangle;html=1;whiteSpace=wrap;connectable=0;strokeColor=inherit;overflow=hidden;fillColor=none;top=0;left=0;bottom=0;right=0;pointerEvents=1;" parent="gT9VgYqtc6GmlGW1Bxi--78" vertex="1">
          <mxGeometry width="60" height="40" as="geometry">
            <mxRectangle width="60" height="40" as="alternateBounds" />
          </mxGeometry>
        </mxCell>
        <mxCell id="gT9VgYqtc6GmlGW1Bxi--80" value="tipo" style="shape=partialRectangle;html=1;whiteSpace=wrap;connectable=0;strokeColor=inherit;overflow=hidden;fillColor=none;top=0;left=0;bottom=0;right=0;pointerEvents=1;" parent="gT9VgYqtc6GmlGW1Bxi--78" vertex="1">
          <mxGeometry x="60" width="170" height="40" as="geometry">
            <mxRectangle width="170" height="40" as="alternateBounds" />
          </mxGeometry>
        </mxCell>
        <mxCell id="gT9VgYqtc6GmlGW1Bxi--81" style="shape=tableRow;horizontal=0;startSize=0;swimlaneHead=0;swimlaneBody=0;strokeColor=inherit;top=0;left=0;bottom=0;right=0;collapsible=0;dropTarget=0;fillColor=none;points=[[0,0.5],[1,0.5]];portConstraint=eastwest;" parent="gT9VgYqtc6GmlGW1Bxi--56" vertex="1">
          <mxGeometry y="400" width="230" height="40" as="geometry" />
        </mxCell>
        <mxCell id="gT9VgYqtc6GmlGW1Bxi--82" style="shape=partialRectangle;html=1;whiteSpace=wrap;connectable=0;strokeColor=inherit;overflow=hidden;fillColor=none;top=0;left=0;bottom=0;right=0;pointerEvents=1;" parent="gT9VgYqtc6GmlGW1Bxi--81" vertex="1">
          <mxGeometry width="60" height="40" as="geometry">
            <mxRectangle width="60" height="40" as="alternateBounds" />
          </mxGeometry>
        </mxCell>
        <mxCell id="gT9VgYqtc6GmlGW1Bxi--83" value="estatus" style="shape=partialRectangle;html=1;whiteSpace=wrap;connectable=0;strokeColor=inherit;overflow=hidden;fillColor=none;top=0;left=0;bottom=0;right=0;pointerEvents=1;" parent="gT9VgYqtc6GmlGW1Bxi--81" vertex="1">
          <mxGeometry x="60" width="170" height="40" as="geometry">
            <mxRectangle width="170" height="40" as="alternateBounds" />
          </mxGeometry>
        </mxCell>
        <mxCell id="gT9VgYqtc6GmlGW1Bxi--91" value="" style="endArrow=none;html=1;rounded=0;entryX=0;entryY=0.5;entryDx=0;entryDy=0;exitX=0.002;exitY=0.714;exitDx=0;exitDy=0;exitPerimeter=0;" parent="1" source="jNTaSUSKe1fC9ofm2qRA-143" target="gT9VgYqtc6GmlGW1Bxi--28" edge="1">
          <mxGeometry width="50" height="50" relative="1" as="geometry">
            <mxPoint x="800" y="620" as="sourcePoint" />
            <mxPoint x="590" y="860" as="targetPoint" />
            <Array as="points">
              <mxPoint x="760" y="230" />
              <mxPoint x="760" y="790" />
            </Array>
          </mxGeometry>
        </mxCell>
        <mxCell id="gT9VgYqtc6GmlGW1Bxi--92" value="" style="shape=table;startSize=0;container=1;collapsible=0;childLayout=tableLayout;" parent="1" vertex="1">
          <mxGeometry x="460" y="1070" width="230" height="320" as="geometry" />
        </mxCell>
        <mxCell id="gT9VgYqtc6GmlGW1Bxi--93" value="" style="shape=tableRow;horizontal=0;startSize=0;swimlaneHead=0;swimlaneBody=0;strokeColor=inherit;top=0;left=0;bottom=0;right=0;collapsible=0;dropTarget=0;fillColor=none;points=[[0,0.5],[1,0.5]];portConstraint=eastwest;" parent="gT9VgYqtc6GmlGW1Bxi--92" vertex="1">
          <mxGeometry width="230" height="40" as="geometry" />
        </mxCell>
        <mxCell id="gT9VgYqtc6GmlGW1Bxi--94" value="&lt;span style=&quot;font-size: 18px;&quot;&gt;HISTORICO DIVERGENTE&lt;/span&gt;" style="shape=partialRectangle;html=1;whiteSpace=wrap;connectable=0;strokeColor=#666666;overflow=hidden;fillColor=#f5f5f5;top=0;left=0;bottom=0;right=0;pointerEvents=1;rowspan=1;colspan=2;gradientColor=#b3b3b3;" parent="gT9VgYqtc6GmlGW1Bxi--93" vertex="1">
          <mxGeometry width="230" height="40" as="geometry">
            <mxRectangle width="60" height="40" as="alternateBounds" />
          </mxGeometry>
        </mxCell>
        <mxCell id="gT9VgYqtc6GmlGW1Bxi--95" value="&lt;font style=&quot;font-size: 18px;&quot;&gt;Livro&lt;/font&gt;" style="shape=partialRectangle;html=1;whiteSpace=wrap;connectable=0;strokeColor=inherit;overflow=hidden;fillColor=none;top=0;left=0;bottom=0;right=0;pointerEvents=1;" parent="gT9VgYqtc6GmlGW1Bxi--93" vertex="1" visible="0">
          <mxGeometry x="60" width="170" height="40" as="geometry">
            <mxRectangle width="170" height="40" as="alternateBounds" />
          </mxGeometry>
        </mxCell>
        <mxCell id="gT9VgYqtc6GmlGW1Bxi--96" value="" style="shape=tableRow;horizontal=0;startSize=0;swimlaneHead=0;swimlaneBody=0;strokeColor=inherit;top=0;left=0;bottom=0;right=0;collapsible=0;dropTarget=0;fillColor=none;points=[[0,0.5],[1,0.5]];portConstraint=eastwest;" parent="gT9VgYqtc6GmlGW1Bxi--92" vertex="1">
          <mxGeometry y="40" width="230" height="40" as="geometry" />
        </mxCell>
        <mxCell id="gT9VgYqtc6GmlGW1Bxi--97" value="PK" style="shape=partialRectangle;html=1;whiteSpace=wrap;connectable=0;strokeColor=inherit;overflow=hidden;fillColor=none;top=0;left=0;bottom=0;right=0;pointerEvents=1;" parent="gT9VgYqtc6GmlGW1Bxi--96" vertex="1">
          <mxGeometry width="60" height="40" as="geometry">
            <mxRectangle width="60" height="40" as="alternateBounds" />
          </mxGeometry>
        </mxCell>
        <mxCell id="gT9VgYqtc6GmlGW1Bxi--98" value="id_h_divergente" style="shape=partialRectangle;html=1;whiteSpace=wrap;connectable=0;strokeColor=inherit;overflow=hidden;fillColor=none;top=0;left=0;bottom=0;right=0;pointerEvents=1;" parent="gT9VgYqtc6GmlGW1Bxi--96" vertex="1">
          <mxGeometry x="60" width="170" height="40" as="geometry">
            <mxRectangle width="170" height="40" as="alternateBounds" />
          </mxGeometry>
        </mxCell>
        <mxCell id="gT9VgYqtc6GmlGW1Bxi--99" value="" style="shape=tableRow;horizontal=0;startSize=0;swimlaneHead=0;swimlaneBody=0;strokeColor=inherit;top=0;left=0;bottom=0;right=0;collapsible=0;dropTarget=0;fillColor=none;points=[[0,0.5],[1,0.5]];portConstraint=eastwest;" parent="gT9VgYqtc6GmlGW1Bxi--92" vertex="1">
          <mxGeometry y="80" width="230" height="40" as="geometry" />
        </mxCell>
        <mxCell id="gT9VgYqtc6GmlGW1Bxi--100" value="FK" style="shape=partialRectangle;html=1;whiteSpace=wrap;connectable=0;strokeColor=inherit;overflow=hidden;fillColor=none;top=0;left=0;bottom=0;right=0;pointerEvents=1;" parent="gT9VgYqtc6GmlGW1Bxi--99" vertex="1">
          <mxGeometry width="60" height="40" as="geometry">
            <mxRectangle width="60" height="40" as="alternateBounds" />
          </mxGeometry>
        </mxCell>
        <mxCell id="gT9VgYqtc6GmlGW1Bxi--101" value="id_prog_recebimento" style="shape=partialRectangle;html=1;whiteSpace=wrap;connectable=0;strokeColor=inherit;overflow=hidden;fillColor=none;top=0;left=0;bottom=0;right=0;pointerEvents=1;" parent="gT9VgYqtc6GmlGW1Bxi--99" vertex="1">
          <mxGeometry x="60" width="170" height="40" as="geometry">
            <mxRectangle width="170" height="40" as="alternateBounds" />
          </mxGeometry>
        </mxCell>
        <mxCell id="gT9VgYqtc6GmlGW1Bxi--102" style="shape=tableRow;horizontal=0;startSize=0;swimlaneHead=0;swimlaneBody=0;strokeColor=inherit;top=0;left=0;bottom=0;right=0;collapsible=0;dropTarget=0;fillColor=none;points=[[0,0.5],[1,0.5]];portConstraint=eastwest;" parent="gT9VgYqtc6GmlGW1Bxi--92" vertex="1">
          <mxGeometry y="120" width="230" height="40" as="geometry" />
        </mxCell>
        <mxCell id="gT9VgYqtc6GmlGW1Bxi--103" value="FK" style="shape=partialRectangle;html=1;whiteSpace=wrap;connectable=0;strokeColor=inherit;overflow=hidden;fillColor=none;top=0;left=0;bottom=0;right=0;pointerEvents=1;" parent="gT9VgYqtc6GmlGW1Bxi--102" vertex="1">
          <mxGeometry width="60" height="40" as="geometry">
            <mxRectangle width="60" height="40" as="alternateBounds" />
          </mxGeometry>
        </mxCell>
        <mxCell id="gT9VgYqtc6GmlGW1Bxi--104" value="id_tipo_desconto" style="shape=partialRectangle;html=1;whiteSpace=wrap;connectable=0;strokeColor=inherit;overflow=hidden;fillColor=none;top=0;left=0;bottom=0;right=0;pointerEvents=1;" parent="gT9VgYqtc6GmlGW1Bxi--102" vertex="1">
          <mxGeometry x="60" width="170" height="40" as="geometry">
            <mxRectangle width="170" height="40" as="alternateBounds" />
          </mxGeometry>
        </mxCell>
        <mxCell id="gT9VgYqtc6GmlGW1Bxi--105" style="shape=tableRow;horizontal=0;startSize=0;swimlaneHead=0;swimlaneBody=0;strokeColor=inherit;top=0;left=0;bottom=0;right=0;collapsible=0;dropTarget=0;fillColor=none;points=[[0,0.5],[1,0.5]];portConstraint=eastwest;" parent="gT9VgYqtc6GmlGW1Bxi--92" vertex="1">
          <mxGeometry y="160" width="230" height="40" as="geometry" />
        </mxCell>
        <mxCell id="gT9VgYqtc6GmlGW1Bxi--106" style="shape=partialRectangle;html=1;whiteSpace=wrap;connectable=0;strokeColor=inherit;overflow=hidden;fillColor=none;top=0;left=0;bottom=0;right=0;pointerEvents=1;" parent="gT9VgYqtc6GmlGW1Bxi--105" vertex="1">
          <mxGeometry width="60" height="40" as="geometry">
            <mxRectangle width="60" height="40" as="alternateBounds" />
          </mxGeometry>
        </mxCell>
        <mxCell id="gT9VgYqtc6GmlGW1Bxi--107" value="data_processamento" style="shape=partialRectangle;html=1;whiteSpace=wrap;connectable=0;strokeColor=inherit;overflow=hidden;fillColor=none;top=0;left=0;bottom=0;right=0;pointerEvents=1;" parent="gT9VgYqtc6GmlGW1Bxi--105" vertex="1">
          <mxGeometry x="60" width="170" height="40" as="geometry">
            <mxRectangle width="170" height="40" as="alternateBounds" />
          </mxGeometry>
        </mxCell>
        <mxCell id="gT9VgYqtc6GmlGW1Bxi--127" style="shape=tableRow;horizontal=0;startSize=0;swimlaneHead=0;swimlaneBody=0;strokeColor=inherit;top=0;left=0;bottom=0;right=0;collapsible=0;dropTarget=0;fillColor=none;points=[[0,0.5],[1,0.5]];portConstraint=eastwest;" parent="gT9VgYqtc6GmlGW1Bxi--92" vertex="1">
          <mxGeometry y="200" width="230" height="40" as="geometry" />
        </mxCell>
        <mxCell id="gT9VgYqtc6GmlGW1Bxi--128" style="shape=partialRectangle;html=1;whiteSpace=wrap;connectable=0;strokeColor=inherit;overflow=hidden;fillColor=none;top=0;left=0;bottom=0;right=0;pointerEvents=1;" parent="gT9VgYqtc6GmlGW1Bxi--127" vertex="1">
          <mxGeometry width="60" height="40" as="geometry">
            <mxRectangle width="60" height="40" as="alternateBounds" />
          </mxGeometry>
        </mxCell>
        <mxCell id="gT9VgYqtc6GmlGW1Bxi--129" value="valor_total" style="shape=partialRectangle;html=1;whiteSpace=wrap;connectable=0;strokeColor=inherit;overflow=hidden;fillColor=none;top=0;left=0;bottom=0;right=0;pointerEvents=1;" parent="gT9VgYqtc6GmlGW1Bxi--127" vertex="1">
          <mxGeometry x="60" width="170" height="40" as="geometry">
            <mxRectangle width="170" height="40" as="alternateBounds" />
          </mxGeometry>
        </mxCell>
        <mxCell id="gT9VgYqtc6GmlGW1Bxi--124" style="shape=tableRow;horizontal=0;startSize=0;swimlaneHead=0;swimlaneBody=0;strokeColor=inherit;top=0;left=0;bottom=0;right=0;collapsible=0;dropTarget=0;fillColor=none;points=[[0,0.5],[1,0.5]];portConstraint=eastwest;" parent="gT9VgYqtc6GmlGW1Bxi--92" vertex="1">
          <mxGeometry y="240" width="230" height="40" as="geometry" />
        </mxCell>
        <mxCell id="gT9VgYqtc6GmlGW1Bxi--125" style="shape=partialRectangle;html=1;whiteSpace=wrap;connectable=0;strokeColor=inherit;overflow=hidden;fillColor=none;top=0;left=0;bottom=0;right=0;pointerEvents=1;" parent="gT9VgYqtc6GmlGW1Bxi--124" vertex="1">
          <mxGeometry width="60" height="40" as="geometry">
            <mxRectangle width="60" height="40" as="alternateBounds" />
          </mxGeometry>
        </mxCell>
        <mxCell id="gT9VgYqtc6GmlGW1Bxi--126" value="motivo" style="shape=partialRectangle;html=1;whiteSpace=wrap;connectable=0;strokeColor=inherit;overflow=hidden;fillColor=none;top=0;left=0;bottom=0;right=0;pointerEvents=1;" parent="gT9VgYqtc6GmlGW1Bxi--124" vertex="1">
          <mxGeometry x="60" width="170" height="40" as="geometry">
            <mxRectangle width="170" height="40" as="alternateBounds" />
          </mxGeometry>
        </mxCell>
        <mxCell id="MK-CfrDireuOw1NUeYd8-11" style="shape=tableRow;horizontal=0;startSize=0;swimlaneHead=0;swimlaneBody=0;strokeColor=inherit;top=0;left=0;bottom=0;right=0;collapsible=0;dropTarget=0;fillColor=none;points=[[0,0.5],[1,0.5]];portConstraint=eastwest;" parent="gT9VgYqtc6GmlGW1Bxi--92" vertex="1">
          <mxGeometry y="280" width="230" height="40" as="geometry" />
        </mxCell>
        <mxCell id="MK-CfrDireuOw1NUeYd8-12" style="shape=partialRectangle;html=1;whiteSpace=wrap;connectable=0;strokeColor=inherit;overflow=hidden;fillColor=none;top=0;left=0;bottom=0;right=0;pointerEvents=1;" parent="MK-CfrDireuOw1NUeYd8-11" vertex="1">
          <mxGeometry width="60" height="40" as="geometry">
            <mxRectangle width="60" height="40" as="alternateBounds" />
          </mxGeometry>
        </mxCell>
        <mxCell id="MK-CfrDireuOw1NUeYd8-13" value="condicao_pagamento" style="shape=partialRectangle;html=1;whiteSpace=wrap;connectable=0;strokeColor=inherit;overflow=hidden;fillColor=none;top=0;left=0;bottom=0;right=0;pointerEvents=1;" parent="MK-CfrDireuOw1NUeYd8-11" vertex="1">
          <mxGeometry x="60" width="170" height="40" as="geometry">
            <mxRectangle width="170" height="40" as="alternateBounds" />
          </mxGeometry>
        </mxCell>
        <mxCell id="gT9VgYqtc6GmlGW1Bxi--108" value="" style="shape=table;startSize=0;container=1;collapsible=0;childLayout=tableLayout;" parent="1" vertex="1">
          <mxGeometry x="790" y="1100" width="230" height="280" as="geometry" />
        </mxCell>
        <mxCell id="gT9VgYqtc6GmlGW1Bxi--109" value="" style="shape=tableRow;horizontal=0;startSize=0;swimlaneHead=0;swimlaneBody=0;strokeColor=inherit;top=0;left=0;bottom=0;right=0;collapsible=0;dropTarget=0;fillColor=none;points=[[0,0.5],[1,0.5]];portConstraint=eastwest;" parent="gT9VgYqtc6GmlGW1Bxi--108" vertex="1">
          <mxGeometry width="230" height="40" as="geometry" />
        </mxCell>
        <mxCell id="gT9VgYqtc6GmlGW1Bxi--110" value="&lt;span style=&quot;font-size: 18px;&quot;&gt;PROG RECEBIMENTO&lt;/span&gt;" style="shape=partialRectangle;html=1;whiteSpace=wrap;connectable=0;strokeColor=#666666;overflow=hidden;fillColor=#f5f5f5;top=0;left=0;bottom=0;right=0;pointerEvents=1;rowspan=1;colspan=2;gradientColor=#b3b3b3;" parent="gT9VgYqtc6GmlGW1Bxi--109" vertex="1">
          <mxGeometry width="230" height="40" as="geometry">
            <mxRectangle width="60" height="40" as="alternateBounds" />
          </mxGeometry>
        </mxCell>
        <mxCell id="gT9VgYqtc6GmlGW1Bxi--111" value="&lt;font style=&quot;font-size: 18px;&quot;&gt;Livro&lt;/font&gt;" style="shape=partialRectangle;html=1;whiteSpace=wrap;connectable=0;strokeColor=inherit;overflow=hidden;fillColor=none;top=0;left=0;bottom=0;right=0;pointerEvents=1;" parent="gT9VgYqtc6GmlGW1Bxi--109" vertex="1" visible="0">
          <mxGeometry x="60" width="170" height="40" as="geometry">
            <mxRectangle width="170" height="40" as="alternateBounds" />
          </mxGeometry>
        </mxCell>
        <mxCell id="gT9VgYqtc6GmlGW1Bxi--112" value="" style="shape=tableRow;horizontal=0;startSize=0;swimlaneHead=0;swimlaneBody=0;strokeColor=inherit;top=0;left=0;bottom=0;right=0;collapsible=0;dropTarget=0;fillColor=none;points=[[0,0.5],[1,0.5]];portConstraint=eastwest;" parent="gT9VgYqtc6GmlGW1Bxi--108" vertex="1">
          <mxGeometry y="40" width="230" height="40" as="geometry" />
        </mxCell>
        <mxCell id="gT9VgYqtc6GmlGW1Bxi--113" value="PK" style="shape=partialRectangle;html=1;whiteSpace=wrap;connectable=0;strokeColor=inherit;overflow=hidden;fillColor=none;top=0;left=0;bottom=0;right=0;pointerEvents=1;" parent="gT9VgYqtc6GmlGW1Bxi--112" vertex="1">
          <mxGeometry width="60" height="40" as="geometry">
            <mxRectangle width="60" height="40" as="alternateBounds" />
          </mxGeometry>
        </mxCell>
        <mxCell id="gT9VgYqtc6GmlGW1Bxi--114" value="id_prog_recebimento" style="shape=partialRectangle;html=1;whiteSpace=wrap;connectable=0;strokeColor=inherit;overflow=hidden;fillColor=none;top=0;left=0;bottom=0;right=0;pointerEvents=1;" parent="gT9VgYqtc6GmlGW1Bxi--112" vertex="1">
          <mxGeometry x="60" width="170" height="40" as="geometry">
            <mxRectangle width="170" height="40" as="alternateBounds" />
          </mxGeometry>
        </mxCell>
        <mxCell id="gT9VgYqtc6GmlGW1Bxi--115" value="" style="shape=tableRow;horizontal=0;startSize=0;swimlaneHead=0;swimlaneBody=0;strokeColor=inherit;top=0;left=0;bottom=0;right=0;collapsible=0;dropTarget=0;fillColor=none;points=[[0,0.5],[1,0.5]];portConstraint=eastwest;" parent="gT9VgYqtc6GmlGW1Bxi--108" vertex="1">
          <mxGeometry y="80" width="230" height="40" as="geometry" />
        </mxCell>
        <mxCell id="gT9VgYqtc6GmlGW1Bxi--116" value="FK" style="shape=partialRectangle;html=1;whiteSpace=wrap;connectable=0;strokeColor=inherit;overflow=hidden;fillColor=none;top=0;left=0;bottom=0;right=0;pointerEvents=1;" parent="gT9VgYqtc6GmlGW1Bxi--115" vertex="1">
          <mxGeometry width="60" height="40" as="geometry">
            <mxRectangle width="60" height="40" as="alternateBounds" />
          </mxGeometry>
        </mxCell>
        <mxCell id="gT9VgYqtc6GmlGW1Bxi--117" value="id_nf" style="shape=partialRectangle;html=1;whiteSpace=wrap;connectable=0;strokeColor=inherit;overflow=hidden;fillColor=none;top=0;left=0;bottom=0;right=0;pointerEvents=1;" parent="gT9VgYqtc6GmlGW1Bxi--115" vertex="1">
          <mxGeometry x="60" width="170" height="40" as="geometry">
            <mxRectangle width="170" height="40" as="alternateBounds" />
          </mxGeometry>
        </mxCell>
        <mxCell id="gT9VgYqtc6GmlGW1Bxi--118" style="shape=tableRow;horizontal=0;startSize=0;swimlaneHead=0;swimlaneBody=0;strokeColor=inherit;top=0;left=0;bottom=0;right=0;collapsible=0;dropTarget=0;fillColor=none;points=[[0,0.5],[1,0.5]];portConstraint=eastwest;" parent="gT9VgYqtc6GmlGW1Bxi--108" vertex="1">
          <mxGeometry y="120" width="230" height="40" as="geometry" />
        </mxCell>
        <mxCell id="gT9VgYqtc6GmlGW1Bxi--119" value="" style="shape=partialRectangle;html=1;whiteSpace=wrap;connectable=0;strokeColor=inherit;overflow=hidden;fillColor=none;top=0;left=0;bottom=0;right=0;pointerEvents=1;" parent="gT9VgYqtc6GmlGW1Bxi--118" vertex="1">
          <mxGeometry width="60" height="40" as="geometry">
            <mxRectangle width="60" height="40" as="alternateBounds" />
          </mxGeometry>
        </mxCell>
        <mxCell id="gT9VgYqtc6GmlGW1Bxi--120" value="num_parcela" style="shape=partialRectangle;html=1;whiteSpace=wrap;connectable=0;strokeColor=inherit;overflow=hidden;fillColor=none;top=0;left=0;bottom=0;right=0;pointerEvents=1;" parent="gT9VgYqtc6GmlGW1Bxi--118" vertex="1">
          <mxGeometry x="60" width="170" height="40" as="geometry">
            <mxRectangle width="170" height="40" as="alternateBounds" />
          </mxGeometry>
        </mxCell>
        <mxCell id="gT9VgYqtc6GmlGW1Bxi--121" style="shape=tableRow;horizontal=0;startSize=0;swimlaneHead=0;swimlaneBody=0;strokeColor=inherit;top=0;left=0;bottom=0;right=0;collapsible=0;dropTarget=0;fillColor=none;points=[[0,0.5],[1,0.5]];portConstraint=eastwest;" parent="gT9VgYqtc6GmlGW1Bxi--108" vertex="1">
          <mxGeometry y="160" width="230" height="40" as="geometry" />
        </mxCell>
        <mxCell id="gT9VgYqtc6GmlGW1Bxi--122" style="shape=partialRectangle;html=1;whiteSpace=wrap;connectable=0;strokeColor=inherit;overflow=hidden;fillColor=none;top=0;left=0;bottom=0;right=0;pointerEvents=1;" parent="gT9VgYqtc6GmlGW1Bxi--121" vertex="1">
          <mxGeometry width="60" height="40" as="geometry">
            <mxRectangle width="60" height="40" as="alternateBounds" />
          </mxGeometry>
        </mxCell>
        <mxCell id="gT9VgYqtc6GmlGW1Bxi--123" value="val_parcela" style="shape=partialRectangle;html=1;whiteSpace=wrap;connectable=0;strokeColor=inherit;overflow=hidden;fillColor=none;top=0;left=0;bottom=0;right=0;pointerEvents=1;" parent="gT9VgYqtc6GmlGW1Bxi--121" vertex="1">
          <mxGeometry x="60" width="170" height="40" as="geometry">
            <mxRectangle width="170" height="40" as="alternateBounds" />
          </mxGeometry>
        </mxCell>
        <mxCell id="gT9VgYqtc6GmlGW1Bxi--133" style="shape=tableRow;horizontal=0;startSize=0;swimlaneHead=0;swimlaneBody=0;strokeColor=inherit;top=0;left=0;bottom=0;right=0;collapsible=0;dropTarget=0;fillColor=none;points=[[0,0.5],[1,0.5]];portConstraint=eastwest;" parent="gT9VgYqtc6GmlGW1Bxi--108" vertex="1">
          <mxGeometry y="200" width="230" height="40" as="geometry" />
        </mxCell>
        <mxCell id="gT9VgYqtc6GmlGW1Bxi--134" style="shape=partialRectangle;html=1;whiteSpace=wrap;connectable=0;strokeColor=inherit;overflow=hidden;fillColor=none;top=0;left=0;bottom=0;right=0;pointerEvents=1;" parent="gT9VgYqtc6GmlGW1Bxi--133" vertex="1">
          <mxGeometry width="60" height="40" as="geometry">
            <mxRectangle width="60" height="40" as="alternateBounds" />
          </mxGeometry>
        </mxCell>
        <mxCell id="gT9VgYqtc6GmlGW1Bxi--135" value="data_vencimento" style="shape=partialRectangle;html=1;whiteSpace=wrap;connectable=0;strokeColor=inherit;overflow=hidden;fillColor=none;top=0;left=0;bottom=0;right=0;pointerEvents=1;" parent="gT9VgYqtc6GmlGW1Bxi--133" vertex="1">
          <mxGeometry x="60" width="170" height="40" as="geometry">
            <mxRectangle width="170" height="40" as="alternateBounds" />
          </mxGeometry>
        </mxCell>
        <mxCell id="gT9VgYqtc6GmlGW1Bxi--130" style="shape=tableRow;horizontal=0;startSize=0;swimlaneHead=0;swimlaneBody=0;strokeColor=inherit;top=0;left=0;bottom=0;right=0;collapsible=0;dropTarget=0;fillColor=none;points=[[0,0.5],[1,0.5]];portConstraint=eastwest;" parent="gT9VgYqtc6GmlGW1Bxi--108" vertex="1">
          <mxGeometry y="240" width="230" height="40" as="geometry" />
        </mxCell>
        <mxCell id="gT9VgYqtc6GmlGW1Bxi--131" style="shape=partialRectangle;html=1;whiteSpace=wrap;connectable=0;strokeColor=inherit;overflow=hidden;fillColor=none;top=0;left=0;bottom=0;right=0;pointerEvents=1;" parent="gT9VgYqtc6GmlGW1Bxi--130" vertex="1">
          <mxGeometry width="60" height="40" as="geometry">
            <mxRectangle width="60" height="40" as="alternateBounds" />
          </mxGeometry>
        </mxCell>
        <mxCell id="gT9VgYqtc6GmlGW1Bxi--132" value="pago" style="shape=partialRectangle;html=1;whiteSpace=wrap;connectable=0;strokeColor=inherit;overflow=hidden;fillColor=none;top=0;left=0;bottom=0;right=0;pointerEvents=1;" parent="gT9VgYqtc6GmlGW1Bxi--130" vertex="1">
          <mxGeometry x="60" width="170" height="40" as="geometry">
            <mxRectangle width="170" height="40" as="alternateBounds" />
          </mxGeometry>
        </mxCell>
        <mxCell id="gT9VgYqtc6GmlGW1Bxi--136" value="" style="shape=table;startSize=0;container=1;collapsible=0;childLayout=tableLayout;" parent="1" vertex="1">
          <mxGeometry x="1090" y="660" width="230" height="160" as="geometry" />
        </mxCell>
        <mxCell id="gT9VgYqtc6GmlGW1Bxi--137" value="" style="shape=tableRow;horizontal=0;startSize=0;swimlaneHead=0;swimlaneBody=0;strokeColor=inherit;top=0;left=0;bottom=0;right=0;collapsible=0;dropTarget=0;fillColor=none;points=[[0,0.5],[1,0.5]];portConstraint=eastwest;" parent="gT9VgYqtc6GmlGW1Bxi--136" vertex="1">
          <mxGeometry width="230" height="40" as="geometry" />
        </mxCell>
        <mxCell id="gT9VgYqtc6GmlGW1Bxi--138" value="&lt;span style=&quot;font-size: 18px;&quot;&gt;ITEM VENDA&lt;/span&gt;" style="shape=partialRectangle;html=1;whiteSpace=wrap;connectable=0;strokeColor=#666666;overflow=hidden;fillColor=#f5f5f5;top=0;left=0;bottom=0;right=0;pointerEvents=1;rowspan=1;colspan=2;gradientColor=#b3b3b3;" parent="gT9VgYqtc6GmlGW1Bxi--137" vertex="1">
          <mxGeometry width="230" height="40" as="geometry">
            <mxRectangle width="60" height="40" as="alternateBounds" />
          </mxGeometry>
        </mxCell>
        <mxCell id="gT9VgYqtc6GmlGW1Bxi--139" value="&lt;font style=&quot;font-size: 18px;&quot;&gt;Livro&lt;/font&gt;" style="shape=partialRectangle;html=1;whiteSpace=wrap;connectable=0;strokeColor=inherit;overflow=hidden;fillColor=none;top=0;left=0;bottom=0;right=0;pointerEvents=1;" parent="gT9VgYqtc6GmlGW1Bxi--137" vertex="1" visible="0">
          <mxGeometry x="60" width="170" height="40" as="geometry">
            <mxRectangle width="170" height="40" as="alternateBounds" />
          </mxGeometry>
        </mxCell>
        <mxCell id="gT9VgYqtc6GmlGW1Bxi--140" value="" style="shape=tableRow;horizontal=0;startSize=0;swimlaneHead=0;swimlaneBody=0;strokeColor=inherit;top=0;left=0;bottom=0;right=0;collapsible=0;dropTarget=0;fillColor=none;points=[[0,0.5],[1,0.5]];portConstraint=eastwest;" parent="gT9VgYqtc6GmlGW1Bxi--136" vertex="1">
          <mxGeometry y="40" width="230" height="40" as="geometry" />
        </mxCell>
        <mxCell id="gT9VgYqtc6GmlGW1Bxi--141" value="FK" style="shape=partialRectangle;html=1;whiteSpace=wrap;connectable=0;strokeColor=inherit;overflow=hidden;fillColor=none;top=0;left=0;bottom=0;right=0;pointerEvents=1;" parent="gT9VgYqtc6GmlGW1Bxi--140" vertex="1">
          <mxGeometry width="60" height="40" as="geometry">
            <mxRectangle width="60" height="40" as="alternateBounds" />
          </mxGeometry>
        </mxCell>
        <mxCell id="gT9VgYqtc6GmlGW1Bxi--142" value="id_livro" style="shape=partialRectangle;html=1;whiteSpace=wrap;connectable=0;strokeColor=inherit;overflow=hidden;fillColor=none;top=0;left=0;bottom=0;right=0;pointerEvents=1;" parent="gT9VgYqtc6GmlGW1Bxi--140" vertex="1">
          <mxGeometry x="60" width="170" height="40" as="geometry">
            <mxRectangle width="170" height="40" as="alternateBounds" />
          </mxGeometry>
        </mxCell>
        <mxCell id="gT9VgYqtc6GmlGW1Bxi--143" value="" style="shape=tableRow;horizontal=0;startSize=0;swimlaneHead=0;swimlaneBody=0;strokeColor=inherit;top=0;left=0;bottom=0;right=0;collapsible=0;dropTarget=0;fillColor=none;points=[[0,0.5],[1,0.5]];portConstraint=eastwest;" parent="gT9VgYqtc6GmlGW1Bxi--136" vertex="1">
          <mxGeometry y="80" width="230" height="40" as="geometry" />
        </mxCell>
        <mxCell id="gT9VgYqtc6GmlGW1Bxi--144" value="PK" style="shape=partialRectangle;html=1;whiteSpace=wrap;connectable=0;strokeColor=inherit;overflow=hidden;fillColor=none;top=0;left=0;bottom=0;right=0;pointerEvents=1;" parent="gT9VgYqtc6GmlGW1Bxi--143" vertex="1">
          <mxGeometry width="60" height="40" as="geometry">
            <mxRectangle width="60" height="40" as="alternateBounds" />
          </mxGeometry>
        </mxCell>
        <mxCell id="gT9VgYqtc6GmlGW1Bxi--145" value="id_venda" style="shape=partialRectangle;html=1;whiteSpace=wrap;connectable=0;strokeColor=inherit;overflow=hidden;fillColor=none;top=0;left=0;bottom=0;right=0;pointerEvents=1;" parent="gT9VgYqtc6GmlGW1Bxi--143" vertex="1">
          <mxGeometry x="60" width="170" height="40" as="geometry">
            <mxRectangle width="170" height="40" as="alternateBounds" />
          </mxGeometry>
        </mxCell>
        <mxCell id="gT9VgYqtc6GmlGW1Bxi--146" style="shape=tableRow;horizontal=0;startSize=0;swimlaneHead=0;swimlaneBody=0;strokeColor=inherit;top=0;left=0;bottom=0;right=0;collapsible=0;dropTarget=0;fillColor=none;points=[[0,0.5],[1,0.5]];portConstraint=eastwest;" parent="gT9VgYqtc6GmlGW1Bxi--136" vertex="1">
          <mxGeometry y="120" width="230" height="40" as="geometry" />
        </mxCell>
        <mxCell id="gT9VgYqtc6GmlGW1Bxi--147" value="" style="shape=partialRectangle;html=1;whiteSpace=wrap;connectable=0;strokeColor=inherit;overflow=hidden;fillColor=none;top=0;left=0;bottom=0;right=0;pointerEvents=1;" parent="gT9VgYqtc6GmlGW1Bxi--146" vertex="1">
          <mxGeometry width="60" height="40" as="geometry">
            <mxRectangle width="60" height="40" as="alternateBounds" />
          </mxGeometry>
        </mxCell>
        <mxCell id="gT9VgYqtc6GmlGW1Bxi--148" value="quantidade" style="shape=partialRectangle;html=1;whiteSpace=wrap;connectable=0;strokeColor=inherit;overflow=hidden;fillColor=none;top=0;left=0;bottom=0;right=0;pointerEvents=1;" parent="gT9VgYqtc6GmlGW1Bxi--146" vertex="1">
          <mxGeometry x="60" width="170" height="40" as="geometry">
            <mxRectangle width="170" height="40" as="alternateBounds" />
          </mxGeometry>
        </mxCell>
        <mxCell id="vUGA4CmM-Q1CWvUTpyl4-2" value="" style="endArrow=none;html=1;rounded=0;exitX=0;exitY=0.5;exitDx=0;exitDy=0;entryX=1.002;entryY=0.246;entryDx=0;entryDy=0;entryPerimeter=0;" parent="1" source="gT9VgYqtc6GmlGW1Bxi--31" target="jNTaSUSKe1fC9ofm2qRA-70" edge="1">
          <mxGeometry width="50" height="50" relative="1" as="geometry">
            <mxPoint x="770" y="970" as="sourcePoint" />
            <mxPoint x="710" y="190" as="targetPoint" />
            <Array as="points">
              <mxPoint x="740" y="870" />
              <mxPoint x="740" y="190" />
            </Array>
          </mxGeometry>
        </mxCell>
        <mxCell id="vUGA4CmM-Q1CWvUTpyl4-3" value="" style="endArrow=none;html=1;rounded=0;exitX=1;exitY=0.5;exitDx=0;exitDy=0;entryX=1;entryY=0.5;entryDx=0;entryDy=0;" parent="1" source="YWftSJb1BG-HpuaoZzgN-87" target="gT9VgYqtc6GmlGW1Bxi--115" edge="1">
          <mxGeometry width="50" height="50" relative="1" as="geometry">
            <mxPoint x="1200" y="1090" as="sourcePoint" />
            <mxPoint x="1250" y="1040" as="targetPoint" />
            <Array as="points">
              <mxPoint x="1060" y="1030" />
              <mxPoint x="1060" y="1200" />
            </Array>
          </mxGeometry>
        </mxCell>
        <mxCell id="vUGA4CmM-Q1CWvUTpyl4-8" value="" style="endArrow=none;html=1;rounded=0;exitX=1;exitY=0.5;exitDx=0;exitDy=0;entryX=-0.001;entryY=0.764;entryDx=0;entryDy=0;entryPerimeter=0;" parent="1" source="gT9VgYqtc6GmlGW1Bxi--99" target="gT9VgYqtc6GmlGW1Bxi--112" edge="1">
          <mxGeometry width="50" height="50" relative="1" as="geometry">
            <mxPoint x="700" y="1090" as="sourcePoint" />
            <mxPoint x="750" y="1040" as="targetPoint" />
            <Array as="points">
              <mxPoint x="730" y="1170" />
            </Array>
          </mxGeometry>
        </mxCell>
        <mxCell id="vUGA4CmM-Q1CWvUTpyl4-9" value="" style="endArrow=none;html=1;rounded=0;exitX=0.974;exitY=0.696;exitDx=0;exitDy=0;exitPerimeter=0;" parent="1" edge="1">
          <mxGeometry width="50" height="50" relative="1" as="geometry">
            <mxPoint x="789.2200000000003" y="1150.88" as="sourcePoint" />
            <mxPoint x="690" y="880" as="targetPoint" />
            <Array as="points">
              <mxPoint x="720" y="1150" />
              <mxPoint x="720" y="880" />
            </Array>
          </mxGeometry>
        </mxCell>
        <mxCell id="vUGA4CmM-Q1CWvUTpyl4-13" value="" style="endArrow=none;html=1;rounded=0;exitX=1;exitY=0.664;exitDx=0;exitDy=0;entryX=0;entryY=0.5;entryDx=0;entryDy=0;exitPerimeter=0;" parent="1" source="gT9VgYqtc6GmlGW1Bxi--60" target="gT9VgYqtc6GmlGW1Bxi--102" edge="1">
          <mxGeometry width="50" height="50" relative="1" as="geometry">
            <mxPoint x="490" y="1090" as="sourcePoint" />
            <mxPoint x="540" y="1040" as="targetPoint" />
            <Array as="points">
              <mxPoint x="420" y="937" />
              <mxPoint x="420" y="1210" />
            </Array>
          </mxGeometry>
        </mxCell>
        <mxCell id="gTCKxjx8eckYjmwAqk5_-2" value="" style="shape=table;startSize=0;container=1;collapsible=0;childLayout=tableLayout;" parent="1" vertex="1">
          <mxGeometry x="1090" y="394" width="230" height="96" as="geometry" />
        </mxCell>
        <mxCell id="gTCKxjx8eckYjmwAqk5_-3" value="" style="shape=tableRow;horizontal=0;startSize=0;swimlaneHead=0;swimlaneBody=0;strokeColor=inherit;top=0;left=0;bottom=0;right=0;collapsible=0;dropTarget=0;fillColor=none;points=[[0,0.5],[1,0.5]];portConstraint=eastwest;" parent="gTCKxjx8eckYjmwAqk5_-2" vertex="1">
          <mxGeometry width="230" height="32" as="geometry" />
        </mxCell>
        <mxCell id="gTCKxjx8eckYjmwAqk5_-4" value="&lt;span style=&quot;font-size: 18px;&quot;&gt;LIVRO AUTOR&lt;/span&gt;" style="shape=partialRectangle;html=1;whiteSpace=wrap;connectable=0;strokeColor=#666666;overflow=hidden;fillColor=#f5f5f5;top=0;left=0;bottom=0;right=0;pointerEvents=1;rowspan=1;colspan=2;gradientColor=#b3b3b3;" parent="gTCKxjx8eckYjmwAqk5_-3" vertex="1">
          <mxGeometry width="230" height="32" as="geometry">
            <mxRectangle width="60" height="32" as="alternateBounds" />
          </mxGeometry>
        </mxCell>
        <mxCell id="gTCKxjx8eckYjmwAqk5_-5" value="&lt;font style=&quot;font-size: 18px;&quot;&gt;Livro&lt;/font&gt;" style="shape=partialRectangle;html=1;whiteSpace=wrap;connectable=0;strokeColor=inherit;overflow=hidden;fillColor=none;top=0;left=0;bottom=0;right=0;pointerEvents=1;" parent="gTCKxjx8eckYjmwAqk5_-3" vertex="1" visible="0">
          <mxGeometry x="60" width="170" height="32" as="geometry">
            <mxRectangle width="170" height="32" as="alternateBounds" />
          </mxGeometry>
        </mxCell>
        <mxCell id="gTCKxjx8eckYjmwAqk5_-6" value="" style="shape=tableRow;horizontal=0;startSize=0;swimlaneHead=0;swimlaneBody=0;strokeColor=inherit;top=0;left=0;bottom=0;right=0;collapsible=0;dropTarget=0;fillColor=none;points=[[0,0.5],[1,0.5]];portConstraint=eastwest;" parent="gTCKxjx8eckYjmwAqk5_-2" vertex="1">
          <mxGeometry y="32" width="230" height="32" as="geometry" />
        </mxCell>
        <mxCell id="gTCKxjx8eckYjmwAqk5_-7" value="FK" style="shape=partialRectangle;html=1;whiteSpace=wrap;connectable=0;strokeColor=inherit;overflow=hidden;fillColor=none;top=0;left=0;bottom=0;right=0;pointerEvents=1;" parent="gTCKxjx8eckYjmwAqk5_-6" vertex="1">
          <mxGeometry width="60" height="32" as="geometry">
            <mxRectangle width="60" height="32" as="alternateBounds" />
          </mxGeometry>
        </mxCell>
        <mxCell id="gTCKxjx8eckYjmwAqk5_-8" value="id_livro" style="shape=partialRectangle;html=1;whiteSpace=wrap;connectable=0;strokeColor=inherit;overflow=hidden;fillColor=none;top=0;left=0;bottom=0;right=0;pointerEvents=1;" parent="gTCKxjx8eckYjmwAqk5_-6" vertex="1">
          <mxGeometry x="60" width="170" height="32" as="geometry">
            <mxRectangle width="170" height="32" as="alternateBounds" />
          </mxGeometry>
        </mxCell>
        <mxCell id="gTCKxjx8eckYjmwAqk5_-9" value="" style="shape=tableRow;horizontal=0;startSize=0;swimlaneHead=0;swimlaneBody=0;strokeColor=inherit;top=0;left=0;bottom=0;right=0;collapsible=0;dropTarget=0;fillColor=none;points=[[0,0.5],[1,0.5]];portConstraint=eastwest;" parent="gTCKxjx8eckYjmwAqk5_-2" vertex="1">
          <mxGeometry y="64" width="230" height="32" as="geometry" />
        </mxCell>
        <mxCell id="gTCKxjx8eckYjmwAqk5_-10" value="FK" style="shape=partialRectangle;html=1;whiteSpace=wrap;connectable=0;strokeColor=inherit;overflow=hidden;fillColor=none;top=0;left=0;bottom=0;right=0;pointerEvents=1;" parent="gTCKxjx8eckYjmwAqk5_-9" vertex="1">
          <mxGeometry width="60" height="32" as="geometry">
            <mxRectangle width="60" height="32" as="alternateBounds" />
          </mxGeometry>
        </mxCell>
        <mxCell id="gTCKxjx8eckYjmwAqk5_-11" value="id_autor" style="shape=partialRectangle;html=1;whiteSpace=wrap;connectable=0;strokeColor=inherit;overflow=hidden;fillColor=none;top=0;left=0;bottom=0;right=0;pointerEvents=1;" parent="gTCKxjx8eckYjmwAqk5_-9" vertex="1">
          <mxGeometry x="60" width="170" height="32" as="geometry">
            <mxRectangle width="170" height="32" as="alternateBounds" />
          </mxGeometry>
        </mxCell>
        <mxCell id="gTCKxjx8eckYjmwAqk5_-62" value="" style="endArrow=none;html=1;rounded=0;exitX=1;exitY=0.5;exitDx=0;exitDy=0;entryX=1;entryY=0.5;entryDx=0;entryDy=0;" parent="1" source="gTCKxjx8eckYjmwAqk5_-66" target="gT9VgYqtc6GmlGW1Bxi--5" edge="1">
          <mxGeometry width="50" height="50" relative="1" as="geometry">
            <mxPoint x="1040" y="940" as="sourcePoint" />
            <mxPoint x="1390" y="973" as="targetPoint" />
            <Array as="points">
              <mxPoint x="1350" y="1070" />
              <mxPoint x="1350" y="1200" />
            </Array>
          </mxGeometry>
        </mxCell>
        <mxCell id="gTCKxjx8eckYjmwAqk5_-69" value="1" style="text;html=1;align=center;verticalAlign=middle;resizable=0;points=[];autosize=1;strokeColor=none;fillColor=none;" parent="1" vertex="1">
          <mxGeometry x="1320" y="1200" width="30" height="30" as="geometry" />
        </mxCell>
        <mxCell id="gTCKxjx8eckYjmwAqk5_-70" value="N" style="text;html=1;align=center;verticalAlign=middle;resizable=0;points=[];autosize=1;strokeColor=none;fillColor=none;" parent="1" vertex="1">
          <mxGeometry x="1320" y="1040" width="30" height="30" as="geometry" />
        </mxCell>
        <mxCell id="gTCKxjx8eckYjmwAqk5_-74" value="" style="endArrow=none;html=1;rounded=0;entryX=0;entryY=0.5;entryDx=0;entryDy=0;exitX=1;exitY=0.5;exitDx=0;exitDy=0;" parent="1" source="YWftSJb1BG-HpuaoZzgN-4" target="jNTaSUSKe1fC9ofm2qRA-95" edge="1">
          <mxGeometry width="50" height="50" relative="1" as="geometry">
            <mxPoint x="1080" y="810" as="sourcePoint" />
            <mxPoint x="1220" y="870" as="targetPoint" />
            <Array as="points">
              <mxPoint x="1050" y="950" />
              <mxPoint x="1050" y="910" />
            </Array>
          </mxGeometry>
        </mxCell>
        <mxCell id="gTCKxjx8eckYjmwAqk5_-76" value="1" style="text;html=1;align=center;verticalAlign=middle;resizable=0;points=[];autosize=1;strokeColor=none;fillColor=none;" parent="1" vertex="1">
          <mxGeometry x="1020" y="1000" width="30" height="30" as="geometry" />
        </mxCell>
        <mxCell id="gTCKxjx8eckYjmwAqk5_-77" value="N" style="text;html=1;align=center;verticalAlign=middle;resizable=0;points=[];autosize=1;strokeColor=none;fillColor=none;" parent="1" vertex="1">
          <mxGeometry x="1020" y="1169" width="30" height="30" as="geometry" />
        </mxCell>
        <mxCell id="gTCKxjx8eckYjmwAqk5_-98" value="N" style="text;html=1;align=center;verticalAlign=middle;resizable=0;points=[];autosize=1;strokeColor=none;fillColor=none;" parent="1" vertex="1">
          <mxGeometry x="384" y="900" width="30" height="30" as="geometry" />
        </mxCell>
        <mxCell id="gTCKxjx8eckYjmwAqk5_-99" value="1" style="text;html=1;align=center;verticalAlign=middle;resizable=0;points=[];autosize=1;strokeColor=none;fillColor=none;" parent="1" vertex="1">
          <mxGeometry x="430" y="900" width="30" height="30" as="geometry" />
        </mxCell>
        <mxCell id="gTCKxjx8eckYjmwAqk5_-100" value="1" style="text;html=1;align=center;verticalAlign=middle;resizable=0;points=[];autosize=1;strokeColor=none;fillColor=none;" parent="1" vertex="1">
          <mxGeometry x="420" y="1185" width="30" height="30" as="geometry" />
        </mxCell>
        <mxCell id="gTCKxjx8eckYjmwAqk5_-101" value="N" style="text;html=1;align=center;verticalAlign=middle;resizable=0;points=[];autosize=1;strokeColor=none;fillColor=none;" parent="1" vertex="1">
          <mxGeometry x="390" y="930" width="30" height="30" as="geometry" />
        </mxCell>
        <mxCell id="gTCKxjx8eckYjmwAqk5_-102" value="1" style="text;html=1;align=center;verticalAlign=middle;resizable=0;points=[];autosize=1;strokeColor=none;fillColor=none;" parent="1" vertex="1">
          <mxGeometry x="690" y="850" width="30" height="30" as="geometry" />
        </mxCell>
        <mxCell id="gTCKxjx8eckYjmwAqk5_-104" value="N" style="text;html=1;align=center;verticalAlign=middle;resizable=0;points=[];autosize=1;strokeColor=none;fillColor=none;" parent="1" vertex="1">
          <mxGeometry x="690" y="1169" width="30" height="30" as="geometry" />
        </mxCell>
        <mxCell id="gTCKxjx8eckYjmwAqk5_-105" value="1" style="text;html=1;align=center;verticalAlign=middle;resizable=0;points=[];autosize=1;strokeColor=none;fillColor=none;" parent="1" vertex="1">
          <mxGeometry x="760" y="1169" width="30" height="30" as="geometry" />
        </mxCell>
        <mxCell id="gTCKxjx8eckYjmwAqk5_-106" value="1" style="text;html=1;align=center;verticalAlign=middle;resizable=0;points=[];autosize=1;strokeColor=none;fillColor=none;" parent="1" vertex="1">
          <mxGeometry x="760" y="200" width="30" height="30" as="geometry" />
        </mxCell>
        <mxCell id="gTCKxjx8eckYjmwAqk5_-107" value="N" style="text;html=1;align=center;verticalAlign=middle;resizable=0;points=[];autosize=1;strokeColor=none;fillColor=none;" parent="1" vertex="1">
          <mxGeometry x="760" y="760" width="30" height="30" as="geometry" />
        </mxCell>
        <mxCell id="gTCKxjx8eckYjmwAqk5_-108" value="N" style="text;html=1;align=center;verticalAlign=middle;resizable=0;points=[];autosize=1;strokeColor=none;fillColor=none;" parent="1" vertex="1">
          <mxGeometry x="690" y="530" width="30" height="30" as="geometry" />
        </mxCell>
        <mxCell id="gTCKxjx8eckYjmwAqk5_-109" value="N" style="text;html=1;align=center;verticalAlign=middle;resizable=0;points=[];autosize=1;strokeColor=none;fillColor=none;" parent="1" vertex="1">
          <mxGeometry x="760" y="840" width="30" height="30" as="geometry" />
        </mxCell>
        <mxCell id="jNTaSUSKe1fC9ofm2qRA-139" value="" style="shape=table;startSize=0;container=1;collapsible=0;childLayout=tableLayout;" parent="1" vertex="1">
          <mxGeometry x="790" y="140" width="230" height="217.5" as="geometry" />
        </mxCell>
        <mxCell id="jNTaSUSKe1fC9ofm2qRA-140" value="" style="shape=tableRow;horizontal=0;startSize=0;swimlaneHead=0;swimlaneBody=0;strokeColor=inherit;top=0;left=0;bottom=0;right=0;collapsible=0;dropTarget=0;fillColor=none;points=[[0,0.5],[1,0.5]];portConstraint=eastwest;" parent="jNTaSUSKe1fC9ofm2qRA-139" vertex="1">
          <mxGeometry width="230" height="52" as="geometry" />
        </mxCell>
        <mxCell id="jNTaSUSKe1fC9ofm2qRA-141" value="&lt;span style=&quot;font-size: 18px;&quot;&gt;TIPO DE PAGAMENTO&lt;/span&gt;" style="shape=partialRectangle;html=1;whiteSpace=wrap;connectable=0;strokeColor=#666666;overflow=hidden;fillColor=#f5f5f5;top=0;left=0;bottom=0;right=0;pointerEvents=1;rowspan=1;colspan=2;gradientColor=#b3b3b3;" parent="jNTaSUSKe1fC9ofm2qRA-140" vertex="1">
          <mxGeometry width="230" height="52" as="geometry">
            <mxRectangle width="60" height="52" as="alternateBounds" />
          </mxGeometry>
        </mxCell>
        <mxCell id="jNTaSUSKe1fC9ofm2qRA-142" value="&lt;font style=&quot;font-size: 18px;&quot;&gt;Livro&lt;/font&gt;" style="shape=partialRectangle;html=1;whiteSpace=wrap;connectable=0;strokeColor=inherit;overflow=hidden;fillColor=none;top=0;left=0;bottom=0;right=0;pointerEvents=1;" parent="jNTaSUSKe1fC9ofm2qRA-140" vertex="1" visible="0">
          <mxGeometry x="60" width="170" height="52" as="geometry">
            <mxRectangle width="170" height="52" as="alternateBounds" />
          </mxGeometry>
        </mxCell>
        <mxCell id="jNTaSUSKe1fC9ofm2qRA-143" value="" style="shape=tableRow;horizontal=0;startSize=0;swimlaneHead=0;swimlaneBody=0;strokeColor=inherit;top=0;left=0;bottom=0;right=0;collapsible=0;dropTarget=0;fillColor=none;points=[[0,0.5],[1,0.5]];portConstraint=eastwest;" parent="jNTaSUSKe1fC9ofm2qRA-139" vertex="1">
          <mxGeometry y="52" width="230" height="55" as="geometry" />
        </mxCell>
        <mxCell id="jNTaSUSKe1fC9ofm2qRA-144" value="PK" style="shape=partialRectangle;html=1;whiteSpace=wrap;connectable=0;strokeColor=inherit;overflow=hidden;fillColor=none;top=0;left=0;bottom=0;right=0;pointerEvents=1;" parent="jNTaSUSKe1fC9ofm2qRA-143" vertex="1">
          <mxGeometry width="60" height="55" as="geometry">
            <mxRectangle width="60" height="55" as="alternateBounds" />
          </mxGeometry>
        </mxCell>
        <mxCell id="jNTaSUSKe1fC9ofm2qRA-145" value="id_tipo_de_pagamento" style="shape=partialRectangle;html=1;whiteSpace=wrap;connectable=0;strokeColor=inherit;overflow=hidden;fillColor=none;top=0;left=0;bottom=0;right=0;pointerEvents=1;" parent="jNTaSUSKe1fC9ofm2qRA-143" vertex="1">
          <mxGeometry x="60" width="170" height="55" as="geometry">
            <mxRectangle width="170" height="55" as="alternateBounds" />
          </mxGeometry>
        </mxCell>
        <mxCell id="-hLwLj78S3W-SjMAlXVM-115" value="" style="rounded=1;whiteSpace=wrap;html=1;" parent="jNTaSUSKe1fC9ofm2qRA-143" vertex="1">
          <mxGeometry x="230" width="NaN" height="55" as="geometry">
            <mxRectangle width="NaN" height="55" as="alternateBounds" />
          </mxGeometry>
        </mxCell>
        <mxCell id="jNTaSUSKe1fC9ofm2qRA-146" value="" style="shape=tableRow;horizontal=0;startSize=0;swimlaneHead=0;swimlaneBody=0;strokeColor=inherit;top=0;left=0;bottom=0;right=0;collapsible=0;dropTarget=0;fillColor=none;points=[[0,0.5],[1,0.5]];portConstraint=eastwest;" parent="jNTaSUSKe1fC9ofm2qRA-139" vertex="1">
          <mxGeometry y="107" width="230" height="37" as="geometry" />
        </mxCell>
        <mxCell id="jNTaSUSKe1fC9ofm2qRA-147" style="shape=partialRectangle;html=1;whiteSpace=wrap;connectable=0;strokeColor=inherit;overflow=hidden;fillColor=none;top=0;left=0;bottom=0;right=0;pointerEvents=1;" parent="jNTaSUSKe1fC9ofm2qRA-146" vertex="1">
          <mxGeometry width="60" height="37" as="geometry">
            <mxRectangle width="60" height="37" as="alternateBounds" />
          </mxGeometry>
        </mxCell>
        <mxCell id="jNTaSUSKe1fC9ofm2qRA-148" value="tipo" style="shape=partialRectangle;html=1;whiteSpace=wrap;connectable=0;strokeColor=inherit;overflow=hidden;fillColor=none;top=0;left=0;bottom=0;right=0;pointerEvents=1;" parent="jNTaSUSKe1fC9ofm2qRA-146" vertex="1">
          <mxGeometry x="60" width="170" height="37" as="geometry">
            <mxRectangle width="170" height="37" as="alternateBounds" />
          </mxGeometry>
        </mxCell>
        <mxCell id="jNTaSUSKe1fC9ofm2qRA-149" value="" style="shape=tableRow;horizontal=0;startSize=0;swimlaneHead=0;swimlaneBody=0;strokeColor=inherit;top=0;left=0;bottom=0;right=0;collapsible=0;dropTarget=0;fillColor=none;points=[[0,0.5],[1,0.5]];portConstraint=eastwest;" parent="jNTaSUSKe1fC9ofm2qRA-139" vertex="1">
          <mxGeometry y="144" width="230" height="37" as="geometry" />
        </mxCell>
        <mxCell id="jNTaSUSKe1fC9ofm2qRA-150" style="shape=partialRectangle;html=1;whiteSpace=wrap;connectable=0;strokeColor=inherit;overflow=hidden;fillColor=none;top=0;left=0;bottom=0;right=0;pointerEvents=1;" parent="jNTaSUSKe1fC9ofm2qRA-149" vertex="1">
          <mxGeometry width="60" height="37" as="geometry">
            <mxRectangle width="60" height="37" as="alternateBounds" />
          </mxGeometry>
        </mxCell>
        <mxCell id="jNTaSUSKe1fC9ofm2qRA-151" value="descricao" style="shape=partialRectangle;html=1;whiteSpace=wrap;connectable=0;strokeColor=inherit;overflow=hidden;fillColor=none;top=0;left=0;bottom=0;right=0;pointerEvents=1;" parent="jNTaSUSKe1fC9ofm2qRA-149" vertex="1">
          <mxGeometry x="60" width="170" height="37" as="geometry">
            <mxRectangle width="170" height="37" as="alternateBounds" />
          </mxGeometry>
        </mxCell>
        <mxCell id="FkXMdZm9MM7ueJ2MI9rE-1" style="shape=tableRow;horizontal=0;startSize=0;swimlaneHead=0;swimlaneBody=0;strokeColor=inherit;top=0;left=0;bottom=0;right=0;collapsible=0;dropTarget=0;fillColor=none;points=[[0,0.5],[1,0.5]];portConstraint=eastwest;" vertex="1" parent="jNTaSUSKe1fC9ofm2qRA-139">
          <mxGeometry y="181" width="230" height="36" as="geometry" />
        </mxCell>
        <mxCell id="FkXMdZm9MM7ueJ2MI9rE-2" style="shape=partialRectangle;html=1;whiteSpace=wrap;connectable=0;strokeColor=inherit;overflow=hidden;fillColor=none;top=0;left=0;bottom=0;right=0;pointerEvents=1;" vertex="1" parent="FkXMdZm9MM7ueJ2MI9rE-1">
          <mxGeometry width="60" height="36" as="geometry">
            <mxRectangle width="60" height="36" as="alternateBounds" />
          </mxGeometry>
        </mxCell>
        <mxCell id="FkXMdZm9MM7ueJ2MI9rE-3" value="numero_parcelas" style="shape=partialRectangle;html=1;whiteSpace=wrap;connectable=0;strokeColor=inherit;overflow=hidden;fillColor=none;top=0;left=0;bottom=0;right=0;pointerEvents=1;" vertex="1" parent="FkXMdZm9MM7ueJ2MI9rE-1">
          <mxGeometry x="60" width="170" height="36" as="geometry">
            <mxRectangle width="170" height="36" as="alternateBounds" />
          </mxGeometry>
        </mxCell>
        <mxCell id="YWftSJb1BG-HpuaoZzgN-22" value="" style="shape=table;startSize=0;container=1;collapsible=0;childLayout=tableLayout;" parent="1" vertex="1">
          <mxGeometry x="460" y="430" width="230" height="280" as="geometry" />
        </mxCell>
        <mxCell id="YWftSJb1BG-HpuaoZzgN-23" value="" style="shape=tableRow;horizontal=0;startSize=0;swimlaneHead=0;swimlaneBody=0;strokeColor=inherit;top=0;left=0;bottom=0;right=0;collapsible=0;dropTarget=0;fillColor=none;points=[[0,0.5],[1,0.5]];portConstraint=eastwest;" parent="YWftSJb1BG-HpuaoZzgN-22" vertex="1">
          <mxGeometry width="230" height="40" as="geometry" />
        </mxCell>
        <mxCell id="YWftSJb1BG-HpuaoZzgN-24" value="&lt;font style=&quot;font-size: 18px;&quot;&gt;ENDERECO CLIENTES&lt;/font&gt;" style="shape=partialRectangle;html=1;whiteSpace=wrap;connectable=0;strokeColor=#666666;overflow=hidden;fillColor=#f5f5f5;top=0;left=0;bottom=0;right=0;pointerEvents=1;rowspan=1;colspan=2;gradientColor=#b3b3b3;" parent="YWftSJb1BG-HpuaoZzgN-23" vertex="1">
          <mxGeometry width="230" height="40" as="geometry">
            <mxRectangle width="60" height="40" as="alternateBounds" />
          </mxGeometry>
        </mxCell>
        <mxCell id="YWftSJb1BG-HpuaoZzgN-25" value="&lt;font style=&quot;font-size: 18px;&quot;&gt;Livro&lt;/font&gt;" style="shape=partialRectangle;html=1;whiteSpace=wrap;connectable=0;strokeColor=inherit;overflow=hidden;fillColor=none;top=0;left=0;bottom=0;right=0;pointerEvents=1;" parent="YWftSJb1BG-HpuaoZzgN-23" vertex="1" visible="0">
          <mxGeometry x="60" width="170" height="40" as="geometry">
            <mxRectangle width="170" height="40" as="alternateBounds" />
          </mxGeometry>
        </mxCell>
        <mxCell id="YWftSJb1BG-HpuaoZzgN-26" value="" style="shape=tableRow;horizontal=0;startSize=0;swimlaneHead=0;swimlaneBody=0;strokeColor=inherit;top=0;left=0;bottom=0;right=0;collapsible=0;dropTarget=0;fillColor=none;points=[[0,0.5],[1,0.5]];portConstraint=eastwest;" parent="YWftSJb1BG-HpuaoZzgN-22" vertex="1">
          <mxGeometry y="40" width="230" height="40" as="geometry" />
        </mxCell>
        <mxCell id="YWftSJb1BG-HpuaoZzgN-27" value="PK" style="shape=partialRectangle;html=1;whiteSpace=wrap;connectable=0;strokeColor=inherit;overflow=hidden;fillColor=none;top=0;left=0;bottom=0;right=0;pointerEvents=1;" parent="YWftSJb1BG-HpuaoZzgN-26" vertex="1">
          <mxGeometry width="60" height="40" as="geometry">
            <mxRectangle width="60" height="40" as="alternateBounds" />
          </mxGeometry>
        </mxCell>
        <mxCell id="YWftSJb1BG-HpuaoZzgN-28" value="id_endereco_clientes" style="shape=partialRectangle;html=1;whiteSpace=wrap;connectable=0;strokeColor=inherit;overflow=hidden;fillColor=none;top=0;left=0;bottom=0;right=0;pointerEvents=1;" parent="YWftSJb1BG-HpuaoZzgN-26" vertex="1">
          <mxGeometry x="60" width="170" height="40" as="geometry">
            <mxRectangle width="170" height="40" as="alternateBounds" />
          </mxGeometry>
        </mxCell>
        <mxCell id="YWftSJb1BG-HpuaoZzgN-29" value="" style="shape=tableRow;horizontal=0;startSize=0;swimlaneHead=0;swimlaneBody=0;strokeColor=inherit;top=0;left=0;bottom=0;right=0;collapsible=0;dropTarget=0;fillColor=none;points=[[0,0.5],[1,0.5]];portConstraint=eastwest;" parent="YWftSJb1BG-HpuaoZzgN-22" vertex="1">
          <mxGeometry y="80" width="230" height="40" as="geometry" />
        </mxCell>
        <mxCell id="YWftSJb1BG-HpuaoZzgN-30" value="FK" style="shape=partialRectangle;html=1;whiteSpace=wrap;connectable=0;strokeColor=inherit;overflow=hidden;fillColor=none;top=0;left=0;bottom=0;right=0;pointerEvents=1;" parent="YWftSJb1BG-HpuaoZzgN-29" vertex="1">
          <mxGeometry width="60" height="40" as="geometry">
            <mxRectangle width="60" height="40" as="alternateBounds" />
          </mxGeometry>
        </mxCell>
        <mxCell id="YWftSJb1BG-HpuaoZzgN-31" value="id_cliente" style="shape=partialRectangle;html=1;whiteSpace=wrap;connectable=0;strokeColor=inherit;overflow=hidden;fillColor=none;top=0;left=0;bottom=0;right=0;pointerEvents=1;" parent="YWftSJb1BG-HpuaoZzgN-29" vertex="1">
          <mxGeometry x="60" width="170" height="40" as="geometry">
            <mxRectangle width="170" height="40" as="alternateBounds" />
          </mxGeometry>
        </mxCell>
        <mxCell id="YWftSJb1BG-HpuaoZzgN-32" value="" style="shape=tableRow;horizontal=0;startSize=0;swimlaneHead=0;swimlaneBody=0;strokeColor=inherit;top=0;left=0;bottom=0;right=0;collapsible=0;dropTarget=0;fillColor=none;points=[[0,0.5],[1,0.5]];portConstraint=eastwest;" parent="YWftSJb1BG-HpuaoZzgN-22" vertex="1">
          <mxGeometry y="120" width="230" height="40" as="geometry" />
        </mxCell>
        <mxCell id="YWftSJb1BG-HpuaoZzgN-33" value="FK" style="shape=partialRectangle;html=1;whiteSpace=wrap;connectable=0;strokeColor=inherit;overflow=hidden;fillColor=none;top=0;left=0;bottom=0;right=0;pointerEvents=1;" parent="YWftSJb1BG-HpuaoZzgN-32" vertex="1">
          <mxGeometry width="60" height="40" as="geometry">
            <mxRectangle width="60" height="40" as="alternateBounds" />
          </mxGeometry>
        </mxCell>
        <mxCell id="YWftSJb1BG-HpuaoZzgN-34" value="id_tipo_endereco" style="shape=partialRectangle;html=1;whiteSpace=wrap;connectable=0;strokeColor=inherit;overflow=hidden;fillColor=none;top=0;left=0;bottom=0;right=0;pointerEvents=1;" parent="YWftSJb1BG-HpuaoZzgN-32" vertex="1">
          <mxGeometry x="60" width="170" height="40" as="geometry">
            <mxRectangle width="170" height="40" as="alternateBounds" />
          </mxGeometry>
        </mxCell>
        <mxCell id="YWftSJb1BG-HpuaoZzgN-35" value="" style="shape=tableRow;horizontal=0;startSize=0;swimlaneHead=0;swimlaneBody=0;strokeColor=inherit;top=0;left=0;bottom=0;right=0;collapsible=0;dropTarget=0;fillColor=none;points=[[0,0.5],[1,0.5]];portConstraint=eastwest;" parent="YWftSJb1BG-HpuaoZzgN-22" vertex="1">
          <mxGeometry y="160" width="230" height="40" as="geometry" />
        </mxCell>
        <mxCell id="YWftSJb1BG-HpuaoZzgN-36" value="FK" style="shape=partialRectangle;html=1;whiteSpace=wrap;connectable=0;strokeColor=inherit;overflow=hidden;fillColor=none;top=0;left=0;bottom=0;right=0;pointerEvents=1;" parent="YWftSJb1BG-HpuaoZzgN-35" vertex="1">
          <mxGeometry width="60" height="40" as="geometry">
            <mxRectangle width="60" height="40" as="alternateBounds" />
          </mxGeometry>
        </mxCell>
        <mxCell id="YWftSJb1BG-HpuaoZzgN-37" value="cep" style="shape=partialRectangle;html=1;whiteSpace=wrap;connectable=0;strokeColor=inherit;overflow=hidden;fillColor=none;top=0;left=0;bottom=0;right=0;pointerEvents=1;" parent="YWftSJb1BG-HpuaoZzgN-35" vertex="1">
          <mxGeometry x="60" width="170" height="40" as="geometry">
            <mxRectangle width="170" height="40" as="alternateBounds" />
          </mxGeometry>
        </mxCell>
        <mxCell id="YWftSJb1BG-HpuaoZzgN-38" style="shape=tableRow;horizontal=0;startSize=0;swimlaneHead=0;swimlaneBody=0;strokeColor=inherit;top=0;left=0;bottom=0;right=0;collapsible=0;dropTarget=0;fillColor=none;points=[[0,0.5],[1,0.5]];portConstraint=eastwest;" parent="YWftSJb1BG-HpuaoZzgN-22" vertex="1">
          <mxGeometry y="200" width="230" height="40" as="geometry" />
        </mxCell>
        <mxCell id="YWftSJb1BG-HpuaoZzgN-39" style="shape=partialRectangle;html=1;whiteSpace=wrap;connectable=0;strokeColor=inherit;overflow=hidden;fillColor=none;top=0;left=0;bottom=0;right=0;pointerEvents=1;" parent="YWftSJb1BG-HpuaoZzgN-38" vertex="1">
          <mxGeometry width="60" height="40" as="geometry">
            <mxRectangle width="60" height="40" as="alternateBounds" />
          </mxGeometry>
        </mxCell>
        <mxCell id="YWftSJb1BG-HpuaoZzgN-40" value="numero" style="shape=partialRectangle;html=1;whiteSpace=wrap;connectable=0;strokeColor=inherit;overflow=hidden;fillColor=none;top=0;left=0;bottom=0;right=0;pointerEvents=1;" parent="YWftSJb1BG-HpuaoZzgN-38" vertex="1">
          <mxGeometry x="60" width="170" height="40" as="geometry">
            <mxRectangle width="170" height="40" as="alternateBounds" />
          </mxGeometry>
        </mxCell>
        <mxCell id="YWftSJb1BG-HpuaoZzgN-41" style="shape=tableRow;horizontal=0;startSize=0;swimlaneHead=0;swimlaneBody=0;strokeColor=inherit;top=0;left=0;bottom=0;right=0;collapsible=0;dropTarget=0;fillColor=none;points=[[0,0.5],[1,0.5]];portConstraint=eastwest;" parent="YWftSJb1BG-HpuaoZzgN-22" vertex="1">
          <mxGeometry y="240" width="230" height="40" as="geometry" />
        </mxCell>
        <mxCell id="YWftSJb1BG-HpuaoZzgN-42" style="shape=partialRectangle;html=1;whiteSpace=wrap;connectable=0;strokeColor=inherit;overflow=hidden;fillColor=none;top=0;left=0;bottom=0;right=0;pointerEvents=1;" parent="YWftSJb1BG-HpuaoZzgN-41" vertex="1">
          <mxGeometry width="60" height="40" as="geometry">
            <mxRectangle width="60" height="40" as="alternateBounds" />
          </mxGeometry>
        </mxCell>
        <mxCell id="YWftSJb1BG-HpuaoZzgN-43" value="complemento" style="shape=partialRectangle;html=1;whiteSpace=wrap;connectable=0;strokeColor=inherit;overflow=hidden;fillColor=none;top=0;left=0;bottom=0;right=0;pointerEvents=1;" parent="YWftSJb1BG-HpuaoZzgN-41" vertex="1">
          <mxGeometry x="60" width="170" height="40" as="geometry">
            <mxRectangle width="170" height="40" as="alternateBounds" />
          </mxGeometry>
        </mxCell>
        <mxCell id="YWftSJb1BG-HpuaoZzgN-44" value="" style="shape=table;startSize=0;container=1;collapsible=0;childLayout=tableLayout;" parent="1" vertex="1">
          <mxGeometry x="160" y="550" width="230" height="240" as="geometry" />
        </mxCell>
        <mxCell id="YWftSJb1BG-HpuaoZzgN-45" value="" style="shape=tableRow;horizontal=0;startSize=0;swimlaneHead=0;swimlaneBody=0;strokeColor=inherit;top=0;left=0;bottom=0;right=0;collapsible=0;dropTarget=0;fillColor=none;points=[[0,0.5],[1,0.5]];portConstraint=eastwest;" parent="YWftSJb1BG-HpuaoZzgN-44" vertex="1">
          <mxGeometry width="230" height="40" as="geometry" />
        </mxCell>
        <mxCell id="YWftSJb1BG-HpuaoZzgN-46" value="&lt;font style=&quot;font-size: 18px;&quot;&gt;CEP&lt;/font&gt;" style="shape=partialRectangle;html=1;whiteSpace=wrap;connectable=0;strokeColor=#666666;overflow=hidden;fillColor=#f5f5f5;top=0;left=0;bottom=0;right=0;pointerEvents=1;rowspan=1;colspan=2;gradientColor=#b3b3b3;" parent="YWftSJb1BG-HpuaoZzgN-45" vertex="1">
          <mxGeometry width="230" height="40" as="geometry">
            <mxRectangle width="60" height="40" as="alternateBounds" />
          </mxGeometry>
        </mxCell>
        <mxCell id="YWftSJb1BG-HpuaoZzgN-47" value="&lt;font style=&quot;font-size: 18px;&quot;&gt;Livro&lt;/font&gt;" style="shape=partialRectangle;html=1;whiteSpace=wrap;connectable=0;strokeColor=inherit;overflow=hidden;fillColor=none;top=0;left=0;bottom=0;right=0;pointerEvents=1;" parent="YWftSJb1BG-HpuaoZzgN-45" vertex="1" visible="0">
          <mxGeometry x="60" width="170" height="40" as="geometry">
            <mxRectangle width="170" height="40" as="alternateBounds" />
          </mxGeometry>
        </mxCell>
        <mxCell id="YWftSJb1BG-HpuaoZzgN-48" value="" style="shape=tableRow;horizontal=0;startSize=0;swimlaneHead=0;swimlaneBody=0;strokeColor=inherit;top=0;left=0;bottom=0;right=0;collapsible=0;dropTarget=0;fillColor=none;points=[[0,0.5],[1,0.5]];portConstraint=eastwest;" parent="YWftSJb1BG-HpuaoZzgN-44" vertex="1">
          <mxGeometry y="40" width="230" height="40" as="geometry" />
        </mxCell>
        <mxCell id="YWftSJb1BG-HpuaoZzgN-49" value="PK" style="shape=partialRectangle;html=1;whiteSpace=wrap;connectable=0;strokeColor=inherit;overflow=hidden;fillColor=none;top=0;left=0;bottom=0;right=0;pointerEvents=1;" parent="YWftSJb1BG-HpuaoZzgN-48" vertex="1">
          <mxGeometry width="60" height="40" as="geometry">
            <mxRectangle width="60" height="40" as="alternateBounds" />
          </mxGeometry>
        </mxCell>
        <mxCell id="YWftSJb1BG-HpuaoZzgN-50" value="cep" style="shape=partialRectangle;html=1;whiteSpace=wrap;connectable=0;strokeColor=inherit;overflow=hidden;fillColor=none;top=0;left=0;bottom=0;right=0;pointerEvents=1;" parent="YWftSJb1BG-HpuaoZzgN-48" vertex="1">
          <mxGeometry x="60" width="170" height="40" as="geometry">
            <mxRectangle width="170" height="40" as="alternateBounds" />
          </mxGeometry>
        </mxCell>
        <mxCell id="YWftSJb1BG-HpuaoZzgN-51" value="" style="shape=tableRow;horizontal=0;startSize=0;swimlaneHead=0;swimlaneBody=0;strokeColor=inherit;top=0;left=0;bottom=0;right=0;collapsible=0;dropTarget=0;fillColor=none;points=[[0,0.5],[1,0.5]];portConstraint=eastwest;" parent="YWftSJb1BG-HpuaoZzgN-44" vertex="1">
          <mxGeometry y="80" width="230" height="40" as="geometry" />
        </mxCell>
        <mxCell id="YWftSJb1BG-HpuaoZzgN-52" style="shape=partialRectangle;html=1;whiteSpace=wrap;connectable=0;strokeColor=inherit;overflow=hidden;fillColor=none;top=0;left=0;bottom=0;right=0;pointerEvents=1;" parent="YWftSJb1BG-HpuaoZzgN-51" vertex="1">
          <mxGeometry width="60" height="40" as="geometry">
            <mxRectangle width="60" height="40" as="alternateBounds" />
          </mxGeometry>
        </mxCell>
        <mxCell id="YWftSJb1BG-HpuaoZzgN-53" value="uf" style="shape=partialRectangle;html=1;whiteSpace=wrap;connectable=0;strokeColor=inherit;overflow=hidden;fillColor=none;top=0;left=0;bottom=0;right=0;pointerEvents=1;" parent="YWftSJb1BG-HpuaoZzgN-51" vertex="1">
          <mxGeometry x="60" width="170" height="40" as="geometry">
            <mxRectangle width="170" height="40" as="alternateBounds" />
          </mxGeometry>
        </mxCell>
        <mxCell id="YWftSJb1BG-HpuaoZzgN-54" value="" style="shape=tableRow;horizontal=0;startSize=0;swimlaneHead=0;swimlaneBody=0;strokeColor=inherit;top=0;left=0;bottom=0;right=0;collapsible=0;dropTarget=0;fillColor=none;points=[[0,0.5],[1,0.5]];portConstraint=eastwest;" parent="YWftSJb1BG-HpuaoZzgN-44" vertex="1">
          <mxGeometry y="120" width="230" height="40" as="geometry" />
        </mxCell>
        <mxCell id="YWftSJb1BG-HpuaoZzgN-55" style="shape=partialRectangle;html=1;whiteSpace=wrap;connectable=0;strokeColor=inherit;overflow=hidden;fillColor=none;top=0;left=0;bottom=0;right=0;pointerEvents=1;" parent="YWftSJb1BG-HpuaoZzgN-54" vertex="1">
          <mxGeometry width="60" height="40" as="geometry">
            <mxRectangle width="60" height="40" as="alternateBounds" />
          </mxGeometry>
        </mxCell>
        <mxCell id="YWftSJb1BG-HpuaoZzgN-56" value="cidade" style="shape=partialRectangle;html=1;whiteSpace=wrap;connectable=0;strokeColor=inherit;overflow=hidden;fillColor=none;top=0;left=0;bottom=0;right=0;pointerEvents=1;" parent="YWftSJb1BG-HpuaoZzgN-54" vertex="1">
          <mxGeometry x="60" width="170" height="40" as="geometry">
            <mxRectangle width="170" height="40" as="alternateBounds" />
          </mxGeometry>
        </mxCell>
        <mxCell id="YWftSJb1BG-HpuaoZzgN-57" value="" style="shape=tableRow;horizontal=0;startSize=0;swimlaneHead=0;swimlaneBody=0;strokeColor=inherit;top=0;left=0;bottom=0;right=0;collapsible=0;dropTarget=0;fillColor=none;points=[[0,0.5],[1,0.5]];portConstraint=eastwest;" parent="YWftSJb1BG-HpuaoZzgN-44" vertex="1">
          <mxGeometry y="160" width="230" height="40" as="geometry" />
        </mxCell>
        <mxCell id="YWftSJb1BG-HpuaoZzgN-58" style="shape=partialRectangle;html=1;whiteSpace=wrap;connectable=0;strokeColor=inherit;overflow=hidden;fillColor=none;top=0;left=0;bottom=0;right=0;pointerEvents=1;" parent="YWftSJb1BG-HpuaoZzgN-57" vertex="1">
          <mxGeometry width="60" height="40" as="geometry">
            <mxRectangle width="60" height="40" as="alternateBounds" />
          </mxGeometry>
        </mxCell>
        <mxCell id="YWftSJb1BG-HpuaoZzgN-59" value="bairro" style="shape=partialRectangle;html=1;whiteSpace=wrap;connectable=0;strokeColor=inherit;overflow=hidden;fillColor=none;top=0;left=0;bottom=0;right=0;pointerEvents=1;" parent="YWftSJb1BG-HpuaoZzgN-57" vertex="1">
          <mxGeometry x="60" width="170" height="40" as="geometry">
            <mxRectangle width="170" height="40" as="alternateBounds" />
          </mxGeometry>
        </mxCell>
        <mxCell id="YWftSJb1BG-HpuaoZzgN-63" style="shape=tableRow;horizontal=0;startSize=0;swimlaneHead=0;swimlaneBody=0;strokeColor=inherit;top=0;left=0;bottom=0;right=0;collapsible=0;dropTarget=0;fillColor=none;points=[[0,0.5],[1,0.5]];portConstraint=eastwest;" parent="YWftSJb1BG-HpuaoZzgN-44" vertex="1">
          <mxGeometry y="200" width="230" height="40" as="geometry" />
        </mxCell>
        <mxCell id="YWftSJb1BG-HpuaoZzgN-64" style="shape=partialRectangle;html=1;whiteSpace=wrap;connectable=0;strokeColor=inherit;overflow=hidden;fillColor=none;top=0;left=0;bottom=0;right=0;pointerEvents=1;" parent="YWftSJb1BG-HpuaoZzgN-63" vertex="1">
          <mxGeometry width="60" height="40" as="geometry">
            <mxRectangle width="60" height="40" as="alternateBounds" />
          </mxGeometry>
        </mxCell>
        <mxCell id="YWftSJb1BG-HpuaoZzgN-65" value="logradouro" style="shape=partialRectangle;html=1;whiteSpace=wrap;connectable=0;strokeColor=inherit;overflow=hidden;fillColor=none;top=0;left=0;bottom=0;right=0;pointerEvents=1;" parent="YWftSJb1BG-HpuaoZzgN-63" vertex="1">
          <mxGeometry x="60" width="170" height="40" as="geometry">
            <mxRectangle width="170" height="40" as="alternateBounds" />
          </mxGeometry>
        </mxCell>
        <mxCell id="YWftSJb1BG-HpuaoZzgN-66" value="" style="shape=table;startSize=0;container=1;collapsible=0;childLayout=tableLayout;" parent="1" vertex="1">
          <mxGeometry x="160" y="330" width="230" height="160" as="geometry" />
        </mxCell>
        <mxCell id="YWftSJb1BG-HpuaoZzgN-67" value="" style="shape=tableRow;horizontal=0;startSize=0;swimlaneHead=0;swimlaneBody=0;strokeColor=inherit;top=0;left=0;bottom=0;right=0;collapsible=0;dropTarget=0;fillColor=none;points=[[0,0.5],[1,0.5]];portConstraint=eastwest;" parent="YWftSJb1BG-HpuaoZzgN-66" vertex="1">
          <mxGeometry width="230" height="40" as="geometry" />
        </mxCell>
        <mxCell id="YWftSJb1BG-HpuaoZzgN-68" value="&lt;font style=&quot;font-size: 18px;&quot;&gt;TIPO ENDERECO&lt;/font&gt;" style="shape=partialRectangle;html=1;whiteSpace=wrap;connectable=0;strokeColor=#666666;overflow=hidden;fillColor=#f5f5f5;top=0;left=0;bottom=0;right=0;pointerEvents=1;rowspan=1;colspan=2;gradientColor=#b3b3b3;" parent="YWftSJb1BG-HpuaoZzgN-67" vertex="1">
          <mxGeometry width="230" height="40" as="geometry">
            <mxRectangle width="60" height="40" as="alternateBounds" />
          </mxGeometry>
        </mxCell>
        <mxCell id="YWftSJb1BG-HpuaoZzgN-69" value="&lt;font style=&quot;font-size: 18px;&quot;&gt;Livro&lt;/font&gt;" style="shape=partialRectangle;html=1;whiteSpace=wrap;connectable=0;strokeColor=inherit;overflow=hidden;fillColor=none;top=0;left=0;bottom=0;right=0;pointerEvents=1;" parent="YWftSJb1BG-HpuaoZzgN-67" vertex="1" visible="0">
          <mxGeometry x="60" width="170" height="40" as="geometry">
            <mxRectangle width="170" height="40" as="alternateBounds" />
          </mxGeometry>
        </mxCell>
        <mxCell id="YWftSJb1BG-HpuaoZzgN-70" value="" style="shape=tableRow;horizontal=0;startSize=0;swimlaneHead=0;swimlaneBody=0;strokeColor=inherit;top=0;left=0;bottom=0;right=0;collapsible=0;dropTarget=0;fillColor=none;points=[[0,0.5],[1,0.5]];portConstraint=eastwest;" parent="YWftSJb1BG-HpuaoZzgN-66" vertex="1">
          <mxGeometry y="40" width="230" height="40" as="geometry" />
        </mxCell>
        <mxCell id="YWftSJb1BG-HpuaoZzgN-71" value="PK" style="shape=partialRectangle;html=1;whiteSpace=wrap;connectable=0;strokeColor=inherit;overflow=hidden;fillColor=none;top=0;left=0;bottom=0;right=0;pointerEvents=1;" parent="YWftSJb1BG-HpuaoZzgN-70" vertex="1">
          <mxGeometry width="60" height="40" as="geometry">
            <mxRectangle width="60" height="40" as="alternateBounds" />
          </mxGeometry>
        </mxCell>
        <mxCell id="YWftSJb1BG-HpuaoZzgN-72" value="id_tipo_endereco" style="shape=partialRectangle;html=1;whiteSpace=wrap;connectable=0;strokeColor=inherit;overflow=hidden;fillColor=none;top=0;left=0;bottom=0;right=0;pointerEvents=1;" parent="YWftSJb1BG-HpuaoZzgN-70" vertex="1">
          <mxGeometry x="60" width="170" height="40" as="geometry">
            <mxRectangle width="170" height="40" as="alternateBounds" />
          </mxGeometry>
        </mxCell>
        <mxCell id="YWftSJb1BG-HpuaoZzgN-73" value="" style="shape=tableRow;horizontal=0;startSize=0;swimlaneHead=0;swimlaneBody=0;strokeColor=inherit;top=0;left=0;bottom=0;right=0;collapsible=0;dropTarget=0;fillColor=none;points=[[0,0.5],[1,0.5]];portConstraint=eastwest;" parent="YWftSJb1BG-HpuaoZzgN-66" vertex="1">
          <mxGeometry y="80" width="230" height="40" as="geometry" />
        </mxCell>
        <mxCell id="YWftSJb1BG-HpuaoZzgN-74" style="shape=partialRectangle;html=1;whiteSpace=wrap;connectable=0;strokeColor=inherit;overflow=hidden;fillColor=none;top=0;left=0;bottom=0;right=0;pointerEvents=1;" parent="YWftSJb1BG-HpuaoZzgN-73" vertex="1">
          <mxGeometry width="60" height="40" as="geometry">
            <mxRectangle width="60" height="40" as="alternateBounds" />
          </mxGeometry>
        </mxCell>
        <mxCell id="YWftSJb1BG-HpuaoZzgN-75" value="descricao" style="shape=partialRectangle;html=1;whiteSpace=wrap;connectable=0;strokeColor=inherit;overflow=hidden;fillColor=none;top=0;left=0;bottom=0;right=0;pointerEvents=1;" parent="YWftSJb1BG-HpuaoZzgN-73" vertex="1">
          <mxGeometry x="60" width="170" height="40" as="geometry">
            <mxRectangle width="170" height="40" as="alternateBounds" />
          </mxGeometry>
        </mxCell>
        <mxCell id="YWftSJb1BG-HpuaoZzgN-76" value="" style="shape=tableRow;horizontal=0;startSize=0;swimlaneHead=0;swimlaneBody=0;strokeColor=inherit;top=0;left=0;bottom=0;right=0;collapsible=0;dropTarget=0;fillColor=none;points=[[0,0.5],[1,0.5]];portConstraint=eastwest;" parent="YWftSJb1BG-HpuaoZzgN-66" vertex="1">
          <mxGeometry y="120" width="230" height="40" as="geometry" />
        </mxCell>
        <mxCell id="YWftSJb1BG-HpuaoZzgN-77" style="shape=partialRectangle;html=1;whiteSpace=wrap;connectable=0;strokeColor=inherit;overflow=hidden;fillColor=none;top=0;left=0;bottom=0;right=0;pointerEvents=1;" parent="YWftSJb1BG-HpuaoZzgN-76" vertex="1">
          <mxGeometry width="60" height="40" as="geometry">
            <mxRectangle width="60" height="40" as="alternateBounds" />
          </mxGeometry>
        </mxCell>
        <mxCell id="YWftSJb1BG-HpuaoZzgN-78" value="sigla" style="shape=partialRectangle;html=1;whiteSpace=wrap;connectable=0;strokeColor=inherit;overflow=hidden;fillColor=none;top=0;left=0;bottom=0;right=0;pointerEvents=1;" parent="YWftSJb1BG-HpuaoZzgN-76" vertex="1">
          <mxGeometry x="60" width="170" height="40" as="geometry">
            <mxRectangle width="170" height="40" as="alternateBounds" />
          </mxGeometry>
        </mxCell>
        <mxCell id="YWftSJb1BG-HpuaoZzgN-85" value="" style="endArrow=none;html=1;rounded=0;exitX=1;exitY=0.5;exitDx=0;exitDy=0;entryX=0;entryY=0.5;entryDx=0;entryDy=0;" parent="1" source="YWftSJb1BG-HpuaoZzgN-48" target="YWftSJb1BG-HpuaoZzgN-35" edge="1">
          <mxGeometry width="50" height="50" relative="1" as="geometry">
            <mxPoint x="1310" y="410" as="sourcePoint" />
            <mxPoint x="1330" y="310" as="targetPoint" />
          </mxGeometry>
        </mxCell>
        <mxCell id="YWftSJb1BG-HpuaoZzgN-86" value="" style="endArrow=none;html=1;rounded=0;exitX=0;exitY=0.5;exitDx=0;exitDy=0;entryX=1;entryY=0.633;entryDx=0;entryDy=0;entryPerimeter=0;" parent="1" source="YWftSJb1BG-HpuaoZzgN-32" target="YWftSJb1BG-HpuaoZzgN-70" edge="1">
          <mxGeometry width="50" height="50" relative="1" as="geometry">
            <mxPoint x="1450" y="170" as="sourcePoint" />
            <mxPoint x="1500" y="120" as="targetPoint" />
            <Array as="points">
              <mxPoint x="420" y="570" />
              <mxPoint x="420" y="395" />
            </Array>
          </mxGeometry>
        </mxCell>
        <mxCell id="YWftSJb1BG-HpuaoZzgN-90" value="" style="endArrow=none;html=1;rounded=0;exitX=0.995;exitY=0.723;exitDx=0;exitDy=0;exitPerimeter=0;entryX=1;entryY=0.5;entryDx=0;entryDy=0;" parent="1" source="jNTaSUSKe1fC9ofm2qRA-70" target="YWftSJb1BG-HpuaoZzgN-29" edge="1">
          <mxGeometry width="50" height="50" relative="1" as="geometry">
            <mxPoint x="720" y="480" as="sourcePoint" />
            <mxPoint x="700" y="520" as="targetPoint" />
            <Array as="points">
              <mxPoint x="710" y="210" />
              <mxPoint x="710" y="530" />
            </Array>
          </mxGeometry>
        </mxCell>
        <mxCell id="YWftSJb1BG-HpuaoZzgN-113" value="" style="endArrow=none;html=1;rounded=0;exitX=0.999;exitY=0.167;exitDx=0;exitDy=0;exitPerimeter=0;entryX=-0.004;entryY=0.583;entryDx=0;entryDy=0;entryPerimeter=0;" parent="1" source="jNTaSUSKe1fC9ofm2qRA-8" target="gTCKxjx8eckYjmwAqk5_-6" edge="1">
          <mxGeometry width="50" height="50" relative="1" as="geometry">
            <mxPoint x="1070" y="450" as="sourcePoint" />
            <mxPoint x="1107" y="455" as="targetPoint" />
          </mxGeometry>
        </mxCell>
        <mxCell id="YWftSJb1BG-HpuaoZzgN-114" value="" style="endArrow=none;html=1;rounded=0;entryX=1;entryY=0.5;entryDx=0;entryDy=0;exitX=1;exitY=0.5;exitDx=0;exitDy=0;" parent="1" source="jNTaSUSKe1fC9ofm2qRA-277" target="gTCKxjx8eckYjmwAqk5_-9" edge="1">
          <mxGeometry width="50" height="50" relative="1" as="geometry">
            <mxPoint x="1410" y="490" as="sourcePoint" />
            <mxPoint x="1370" y="450" as="targetPoint" />
            <Array as="points">
              <mxPoint x="1350" y="585" />
              <mxPoint x="1350" y="474" />
            </Array>
          </mxGeometry>
        </mxCell>
        <mxCell id="YWftSJb1BG-HpuaoZzgN-115" value="" style="endArrow=none;html=1;rounded=0;entryX=1;entryY=0.5;entryDx=0;entryDy=0;exitX=0;exitY=0.5;exitDx=0;exitDy=0;" parent="1" source="gT9VgYqtc6GmlGW1Bxi--140" target="jNTaSUSKe1fC9ofm2qRA-8" edge="1">
          <mxGeometry width="50" height="50" relative="1" as="geometry">
            <mxPoint x="1180" y="680" as="sourcePoint" />
            <mxPoint x="1070" y="500" as="targetPoint" />
            <Array as="points">
              <mxPoint x="1060" y="720" />
              <mxPoint x="1060" y="460" />
            </Array>
          </mxGeometry>
        </mxCell>
        <mxCell id="YWftSJb1BG-HpuaoZzgN-116" value="" style="endArrow=none;html=1;rounded=0;exitX=1.001;exitY=0.308;exitDx=0;exitDy=0;exitPerimeter=0;entryX=0.978;entryY=0.744;entryDx=0;entryDy=0;entryPerimeter=0;" parent="1" source="gT9VgYqtc6GmlGW1Bxi--60" target="gTCKxjx8eckYjmwAqk5_-99" edge="1">
          <mxGeometry width="50" height="50" relative="1" as="geometry">
            <mxPoint x="440" y="990" as="sourcePoint" />
            <mxPoint x="490" y="940" as="targetPoint" />
          </mxGeometry>
        </mxCell>
        <mxCell id="YWftSJb1BG-HpuaoZzgN-117" value="N" style="text;html=1;align=center;verticalAlign=middle;resizable=0;points=[];autosize=1;strokeColor=none;fillColor=none;" parent="1" vertex="1">
          <mxGeometry x="760" y="1120" width="30" height="30" as="geometry" />
        </mxCell>
        <mxCell id="YWftSJb1BG-HpuaoZzgN-118" value="1" style="text;html=1;align=center;verticalAlign=middle;resizable=0;points=[];autosize=1;strokeColor=none;fillColor=none;" parent="1" vertex="1">
          <mxGeometry x="440" y="585" width="30" height="30" as="geometry" />
        </mxCell>
        <mxCell id="YWftSJb1BG-HpuaoZzgN-119" value="N" style="text;html=1;align=center;verticalAlign=middle;resizable=0;points=[];autosize=1;strokeColor=none;fillColor=none;" parent="1" vertex="1">
          <mxGeometry x="384" y="585" width="30" height="30" as="geometry" />
        </mxCell>
        <mxCell id="YWftSJb1BG-HpuaoZzgN-120" value="N" style="text;html=1;align=center;verticalAlign=middle;resizable=0;points=[];autosize=1;strokeColor=none;fillColor=none;" parent="1" vertex="1">
          <mxGeometry x="430" y="540" width="30" height="30" as="geometry" />
        </mxCell>
        <mxCell id="YWftSJb1BG-HpuaoZzgN-121" value="1" style="text;html=1;align=center;verticalAlign=middle;resizable=0;points=[];autosize=1;strokeColor=none;fillColor=none;" parent="1" vertex="1">
          <mxGeometry x="384" y="370" width="30" height="30" as="geometry" />
        </mxCell>
        <mxCell id="YWftSJb1BG-HpuaoZzgN-122" value="1" style="text;html=1;align=center;verticalAlign=middle;resizable=0;points=[];autosize=1;strokeColor=none;fillColor=none;" parent="1" vertex="1">
          <mxGeometry x="700" y="160" width="30" height="30" as="geometry" />
        </mxCell>
        <mxCell id="YWftSJb1BG-HpuaoZzgN-123" value="1" style="text;html=1;align=center;verticalAlign=middle;resizable=0;points=[];autosize=1;strokeColor=none;fillColor=none;" parent="1" vertex="1">
          <mxGeometry x="700" y="190" width="30" height="30" as="geometry" />
        </mxCell>
        <mxCell id="YWftSJb1BG-HpuaoZzgN-124" value="1" style="text;html=1;align=center;verticalAlign=middle;resizable=0;points=[];autosize=1;strokeColor=none;fillColor=none;" parent="1" vertex="1">
          <mxGeometry x="1060" y="420" width="30" height="30" as="geometry" />
        </mxCell>
        <mxCell id="YWftSJb1BG-HpuaoZzgN-125" value="N" style="text;html=1;align=center;verticalAlign=middle;resizable=0;points=[];autosize=1;strokeColor=none;fillColor=none;" parent="1" vertex="1">
          <mxGeometry x="1010" y="420" width="30" height="30" as="geometry" />
        </mxCell>
        <mxCell id="YWftSJb1BG-HpuaoZzgN-126" value="N" style="text;html=1;align=center;verticalAlign=middle;resizable=0;points=[];autosize=1;strokeColor=none;fillColor=none;" parent="1" vertex="1">
          <mxGeometry x="1320" y="450" width="30" height="30" as="geometry" />
        </mxCell>
        <mxCell id="YWftSJb1BG-HpuaoZzgN-127" value="1" style="text;html=1;align=center;verticalAlign=middle;resizable=0;points=[];autosize=1;strokeColor=none;fillColor=none;" parent="1" vertex="1">
          <mxGeometry x="1320" y="560" width="30" height="30" as="geometry" />
        </mxCell>
        <mxCell id="YWftSJb1BG-HpuaoZzgN-128" value="1" style="text;html=1;align=center;verticalAlign=middle;resizable=0;points=[];autosize=1;strokeColor=none;fillColor=none;" parent="1" vertex="1">
          <mxGeometry x="1060" y="690" width="30" height="30" as="geometry" />
        </mxCell>
        <mxCell id="YWftSJb1BG-HpuaoZzgN-129" value="N" style="text;html=1;align=center;verticalAlign=middle;resizable=0;points=[];autosize=1;strokeColor=none;fillColor=none;" parent="1" vertex="1">
          <mxGeometry x="1030" y="460" width="30" height="30" as="geometry" />
        </mxCell>
        <mxCell id="YWftSJb1BG-HpuaoZzgN-132" value="N" style="text;html=1;align=center;verticalAlign=middle;resizable=0;points=[];autosize=1;strokeColor=none;fillColor=none;" parent="1" vertex="1">
          <mxGeometry x="1020" y="920" width="30" height="30" as="geometry" />
        </mxCell>
        <mxCell id="YWftSJb1BG-HpuaoZzgN-133" value="1" style="text;html=1;align=center;verticalAlign=middle;resizable=0;points=[];autosize=1;strokeColor=none;fillColor=none;" parent="1" vertex="1">
          <mxGeometry x="1060" y="880" width="30" height="30" as="geometry" />
        </mxCell>
        <mxCell id="FkXMdZm9MM7ueJ2MI9rE-8" value="" style="endArrow=none;html=1;rounded=0;entryX=0;entryY=0.5;entryDx=0;entryDy=0;exitX=1;exitY=0.5;exitDx=0;exitDy=0;" edge="1" parent="1" source="FkXMdZm9MM7ueJ2MI9rE-5" target="gT9VgYqtc6GmlGW1Bxi--143">
          <mxGeometry width="50" height="50" relative="1" as="geometry">
            <mxPoint x="1040" y="810" as="sourcePoint" />
            <mxPoint x="1070" y="760" as="targetPoint" />
            <Array as="points">
              <mxPoint x="1060" y="830" />
              <mxPoint x="1060" y="760" />
            </Array>
          </mxGeometry>
        </mxCell>
        <mxCell id="FkXMdZm9MM7ueJ2MI9rE-13" value="N" style="text;html=1;align=center;verticalAlign=middle;resizable=0;points=[];autosize=1;strokeColor=none;fillColor=none;" vertex="1" parent="1">
          <mxGeometry x="1060" y="760" width="30" height="30" as="geometry" />
        </mxCell>
        <mxCell id="FkXMdZm9MM7ueJ2MI9rE-14" value="1" style="text;html=1;align=center;verticalAlign=middle;resizable=0;points=[];autosize=1;strokeColor=none;fillColor=none;" vertex="1" parent="1">
          <mxGeometry x="1020" y="800" width="30" height="30" as="geometry" />
        </mxCell>
      </root>
    </mxGraphModel>
  </diagram>
</mxfile>
